%TF.GenerationSoftware,KiCad,Pcbnew,(6.0.5)*%
%TF.CreationDate,2022-07-01T10:08:14+08:00*%
%TF.ProjectId,convertor,636f6e76-6572-4746-9f72-2e6b69636164,rev?*%
%TF.SameCoordinates,Original*%
%TF.FileFunction,Legend,Top*%
%TF.FilePolarity,Positive*%
%FSLAX46Y46*%
G04 Gerber Fmt 4.6, Leading zero omitted, Abs format (unit mm)*
G04 Created by KiCad (PCBNEW (6.0.5)) date 2022-07-01 10:08:14*
%MOMM*%
%LPD*%
G01*
G04 APERTURE LIST*
%ADD10C,0.150000*%
%ADD11C,0.100000*%
%ADD12C,0.120000*%
G04 APERTURE END LIST*
D10*
X136398000Y-91948000D02*
X136398000Y-96012000D01*
X143002000Y-104521000D02*
X144399000Y-104521000D01*
X144399000Y-96012000D02*
X143002000Y-96012000D01*
X143002000Y-96012000D02*
X143002000Y-91948000D01*
X144399000Y-111379000D02*
X144399000Y-104521000D01*
X135001000Y-104521000D02*
X136398000Y-104521000D01*
X136398000Y-96012000D02*
X135001000Y-96012000D01*
X136398000Y-111379000D02*
X136398000Y-104521000D01*
X135001000Y-91948000D02*
X136398000Y-91948000D01*
X144399000Y-111379000D02*
X143002000Y-111379000D01*
X136398000Y-111379000D02*
X135001000Y-111379000D01*
X135001000Y-96012000D02*
X135001000Y-91948000D01*
X144399000Y-91948000D02*
X144399000Y-96012000D01*
X143002000Y-104521000D02*
X143002000Y-111379000D01*
X143002000Y-91948000D02*
X144399000Y-91948000D01*
X135001000Y-104521000D02*
X135001000Y-111379000D01*
D11*
X144125904Y-95713333D02*
X143325904Y-95713333D01*
X143325904Y-95408571D01*
X143364000Y-95332380D01*
X143402095Y-95294285D01*
X143478285Y-95256190D01*
X143592571Y-95256190D01*
X143668761Y-95294285D01*
X143706857Y-95332380D01*
X143744952Y-95408571D01*
X143744952Y-95713333D01*
X143325904Y-94760952D02*
X143325904Y-94608571D01*
X143364000Y-94532380D01*
X143440190Y-94456190D01*
X143592571Y-94418095D01*
X143859238Y-94418095D01*
X144011619Y-94456190D01*
X144087809Y-94532380D01*
X144125904Y-94608571D01*
X144125904Y-94760952D01*
X144087809Y-94837142D01*
X144011619Y-94913333D01*
X143859238Y-94951428D01*
X143592571Y-94951428D01*
X143440190Y-94913333D01*
X143364000Y-94837142D01*
X143325904Y-94760952D01*
X144125904Y-93618095D02*
X143744952Y-93884761D01*
X144125904Y-94075238D02*
X143325904Y-94075238D01*
X143325904Y-93770476D01*
X143364000Y-93694285D01*
X143402095Y-93656190D01*
X143478285Y-93618095D01*
X143592571Y-93618095D01*
X143668761Y-93656190D01*
X143706857Y-93694285D01*
X143744952Y-93770476D01*
X143744952Y-94075238D01*
X143325904Y-93389523D02*
X143325904Y-92932380D01*
X144125904Y-93160952D02*
X143325904Y-93160952D01*
X143706857Y-92399047D02*
X143744952Y-92284761D01*
X143783047Y-92246666D01*
X143859238Y-92208571D01*
X143973523Y-92208571D01*
X144049714Y-92246666D01*
X144087809Y-92284761D01*
X144125904Y-92360952D01*
X144125904Y-92665714D01*
X143325904Y-92665714D01*
X143325904Y-92399047D01*
X143364000Y-92322857D01*
X143402095Y-92284761D01*
X143478285Y-92246666D01*
X143554476Y-92246666D01*
X143630666Y-92284761D01*
X143668761Y-92322857D01*
X143706857Y-92399047D01*
X143706857Y-92665714D01*
X135274095Y-105302380D02*
X135274095Y-104845238D01*
X135274095Y-105073809D02*
X136074095Y-105073809D01*
X135959809Y-104997619D01*
X135883619Y-104921428D01*
X135845523Y-104845238D01*
X135350285Y-105645238D02*
X135312190Y-105683333D01*
X135274095Y-105645238D01*
X135312190Y-105607142D01*
X135350285Y-105645238D01*
X135274095Y-105645238D01*
X136074095Y-106369047D02*
X136074095Y-106216666D01*
X136036000Y-106140476D01*
X135997904Y-106102380D01*
X135883619Y-106026190D01*
X135731238Y-105988095D01*
X135426476Y-105988095D01*
X135350285Y-106026190D01*
X135312190Y-106064285D01*
X135274095Y-106140476D01*
X135274095Y-106292857D01*
X135312190Y-106369047D01*
X135350285Y-106407142D01*
X135426476Y-106445238D01*
X135616952Y-106445238D01*
X135693142Y-106407142D01*
X135731238Y-106369047D01*
X135769333Y-106292857D01*
X135769333Y-106140476D01*
X135731238Y-106064285D01*
X135693142Y-106026190D01*
X135616952Y-105988095D01*
X136074095Y-107169047D02*
X136074095Y-106788095D01*
X135693142Y-106750000D01*
X135731238Y-106788095D01*
X135769333Y-106864285D01*
X135769333Y-107054761D01*
X135731238Y-107130952D01*
X135693142Y-107169047D01*
X135616952Y-107207142D01*
X135426476Y-107207142D01*
X135350285Y-107169047D01*
X135312190Y-107130952D01*
X135274095Y-107054761D01*
X135274095Y-106864285D01*
X135312190Y-106788095D01*
X135350285Y-106750000D01*
X136074095Y-107435714D02*
X135274095Y-107702380D01*
X136074095Y-107969047D01*
X135578857Y-108121428D02*
X135616952Y-108159523D01*
X135655047Y-108235714D01*
X135578857Y-108388095D01*
X135616952Y-108464285D01*
X135655047Y-108502380D01*
X136074095Y-109188095D02*
X136074095Y-108807142D01*
X135693142Y-108769047D01*
X135731238Y-108807142D01*
X135769333Y-108883333D01*
X135769333Y-109073809D01*
X135731238Y-109150000D01*
X135693142Y-109188095D01*
X135616952Y-109226190D01*
X135426476Y-109226190D01*
X135350285Y-109188095D01*
X135312190Y-109150000D01*
X135274095Y-109073809D01*
X135274095Y-108883333D01*
X135312190Y-108807142D01*
X135350285Y-108769047D01*
X135350285Y-109569047D02*
X135312190Y-109607142D01*
X135274095Y-109569047D01*
X135312190Y-109530952D01*
X135350285Y-109569047D01*
X135274095Y-109569047D01*
X136074095Y-110330952D02*
X136074095Y-109950000D01*
X135693142Y-109911904D01*
X135731238Y-109950000D01*
X135769333Y-110026190D01*
X135769333Y-110216666D01*
X135731238Y-110292857D01*
X135693142Y-110330952D01*
X135616952Y-110369047D01*
X135426476Y-110369047D01*
X135350285Y-110330952D01*
X135312190Y-110292857D01*
X135274095Y-110216666D01*
X135274095Y-110026190D01*
X135312190Y-109950000D01*
X135350285Y-109911904D01*
X136074095Y-110597619D02*
X135274095Y-110864285D01*
X136074095Y-111130952D01*
X143402095Y-110673809D02*
X143364000Y-110635714D01*
X143325904Y-110559523D01*
X143325904Y-110369047D01*
X143364000Y-110292857D01*
X143402095Y-110254761D01*
X143478285Y-110216666D01*
X143554476Y-110216666D01*
X143668761Y-110254761D01*
X144125904Y-110711904D01*
X144125904Y-110216666D01*
X144049714Y-109873809D02*
X144087809Y-109835714D01*
X144125904Y-109873809D01*
X144087809Y-109911904D01*
X144049714Y-109873809D01*
X144125904Y-109873809D01*
X143325904Y-109569047D02*
X143325904Y-109073809D01*
X143630666Y-109340476D01*
X143630666Y-109226190D01*
X143668761Y-109150000D01*
X143706857Y-109111904D01*
X143783047Y-109073809D01*
X143973523Y-109073809D01*
X144049714Y-109111904D01*
X144087809Y-109150000D01*
X144125904Y-109226190D01*
X144125904Y-109454761D01*
X144087809Y-109530952D01*
X144049714Y-109569047D01*
X143325904Y-108845238D02*
X144125904Y-108578571D01*
X143325904Y-108311904D01*
X143821142Y-108159523D02*
X143783047Y-108121428D01*
X143744952Y-108045238D01*
X143821142Y-107892857D01*
X143783047Y-107816666D01*
X143744952Y-107778571D01*
X143325904Y-107092857D02*
X143325904Y-107473809D01*
X143706857Y-107511904D01*
X143668761Y-107473809D01*
X143630666Y-107397619D01*
X143630666Y-107207142D01*
X143668761Y-107130952D01*
X143706857Y-107092857D01*
X143783047Y-107054761D01*
X143973523Y-107054761D01*
X144049714Y-107092857D01*
X144087809Y-107130952D01*
X144125904Y-107207142D01*
X144125904Y-107397619D01*
X144087809Y-107473809D01*
X144049714Y-107511904D01*
X144049714Y-106711904D02*
X144087809Y-106673809D01*
X144125904Y-106711904D01*
X144087809Y-106750000D01*
X144049714Y-106711904D01*
X144125904Y-106711904D01*
X143325904Y-105950000D02*
X143325904Y-106330952D01*
X143706857Y-106369047D01*
X143668761Y-106330952D01*
X143630666Y-106254761D01*
X143630666Y-106064285D01*
X143668761Y-105988095D01*
X143706857Y-105950000D01*
X143783047Y-105911904D01*
X143973523Y-105911904D01*
X144049714Y-105950000D01*
X144087809Y-105988095D01*
X144125904Y-106064285D01*
X144125904Y-106254761D01*
X144087809Y-106330952D01*
X144049714Y-106369047D01*
X143325904Y-105683333D02*
X144125904Y-105416666D01*
X143325904Y-105150000D01*
X135274095Y-92303809D02*
X136074095Y-92303809D01*
X136074095Y-92608571D01*
X136036000Y-92684761D01*
X135997904Y-92722857D01*
X135921714Y-92760952D01*
X135807428Y-92760952D01*
X135731238Y-92722857D01*
X135693142Y-92684761D01*
X135655047Y-92608571D01*
X135655047Y-92303809D01*
X136074095Y-93256190D02*
X136074095Y-93408571D01*
X136036000Y-93484761D01*
X135959809Y-93560952D01*
X135807428Y-93599047D01*
X135540761Y-93599047D01*
X135388380Y-93560952D01*
X135312190Y-93484761D01*
X135274095Y-93408571D01*
X135274095Y-93256190D01*
X135312190Y-93180000D01*
X135388380Y-93103809D01*
X135540761Y-93065714D01*
X135807428Y-93065714D01*
X135959809Y-93103809D01*
X136036000Y-93180000D01*
X136074095Y-93256190D01*
X135274095Y-94399047D02*
X135655047Y-94132380D01*
X135274095Y-93941904D02*
X136074095Y-93941904D01*
X136074095Y-94246666D01*
X136036000Y-94322857D01*
X135997904Y-94360952D01*
X135921714Y-94399047D01*
X135807428Y-94399047D01*
X135731238Y-94360952D01*
X135693142Y-94322857D01*
X135655047Y-94246666D01*
X135655047Y-93941904D01*
X136074095Y-94627619D02*
X136074095Y-95084761D01*
X135274095Y-94856190D02*
X136074095Y-94856190D01*
X135502666Y-95313333D02*
X135502666Y-95694285D01*
X135274095Y-95237142D02*
X136074095Y-95503809D01*
X135274095Y-95770476D01*
D12*
%TO.C,R2*%
X139853641Y-97918000D02*
X139546359Y-97918000D01*
X139853641Y-98678000D02*
X139546359Y-98678000D01*
%TO.C,C1*%
X136396000Y-98692580D02*
X136396000Y-98411420D01*
X137416000Y-98692580D02*
X137416000Y-98411420D01*
%TO.C,C2*%
X138536000Y-98913836D02*
X138536000Y-98698164D01*
X137816000Y-98913836D02*
X137816000Y-98698164D01*
%TO.C,J2*%
X147092929Y-108330000D02*
X147490000Y-108330000D01*
X147160000Y-93090000D02*
X147490000Y-93090000D01*
X156150000Y-105030000D02*
X156150000Y-105790000D01*
X156150000Y-95630000D02*
X150150000Y-95630000D01*
X156150000Y-108330000D02*
X150150000Y-108330000D01*
X150150000Y-110110000D02*
X156150000Y-110110000D01*
X156150000Y-110110000D02*
X156150000Y-110870000D01*
X156150000Y-92330000D02*
X156150000Y-93090000D01*
X150150000Y-92330000D02*
X156150000Y-92330000D01*
X156150000Y-99950000D02*
X156150000Y-100710000D01*
X147160000Y-92330000D02*
X147490000Y-92330000D01*
X150150000Y-92630000D02*
X156150000Y-92630000D01*
X147092929Y-105030000D02*
X147490000Y-105030000D01*
X147092929Y-107570000D02*
X147490000Y-107570000D01*
X150150000Y-94870000D02*
X156150000Y-94870000D01*
X147490000Y-93980000D02*
X150150000Y-93980000D01*
X150150000Y-92510000D02*
X156150000Y-92510000D01*
X147092929Y-95630000D02*
X147490000Y-95630000D01*
X156150000Y-110870000D02*
X150150000Y-110870000D01*
X147092929Y-97410000D02*
X147490000Y-97410000D01*
X150150000Y-92390000D02*
X156150000Y-92390000D01*
X147490000Y-101600000D02*
X150150000Y-101600000D01*
X156150000Y-102490000D02*
X156150000Y-103250000D01*
X156150000Y-105790000D02*
X150150000Y-105790000D01*
X156150000Y-100710000D02*
X150150000Y-100710000D01*
X150150000Y-92870000D02*
X156150000Y-92870000D01*
X147092929Y-102490000D02*
X147490000Y-102490000D01*
X147092929Y-98170000D02*
X147490000Y-98170000D01*
X150150000Y-91380000D02*
X147490000Y-91380000D01*
X147092929Y-100710000D02*
X147490000Y-100710000D01*
X147092929Y-99950000D02*
X147490000Y-99950000D01*
X147092929Y-94870000D02*
X147490000Y-94870000D01*
X147092929Y-103250000D02*
X147490000Y-103250000D01*
X150150000Y-102490000D02*
X156150000Y-102490000D01*
X156150000Y-103250000D02*
X150150000Y-103250000D01*
X147092929Y-110870000D02*
X147490000Y-110870000D01*
X147490000Y-96520000D02*
X150150000Y-96520000D01*
X147490000Y-111820000D02*
X150150000Y-111820000D01*
X150150000Y-107570000D02*
X156150000Y-107570000D01*
X150150000Y-99950000D02*
X156150000Y-99950000D01*
X156150000Y-93090000D02*
X150150000Y-93090000D01*
X147092929Y-110110000D02*
X147490000Y-110110000D01*
X150150000Y-92990000D02*
X156150000Y-92990000D01*
X147490000Y-91380000D02*
X147490000Y-111820000D01*
X156150000Y-94870000D02*
X156150000Y-95630000D01*
X156150000Y-97410000D02*
X156150000Y-98170000D01*
X144780000Y-92710000D02*
X144780000Y-91440000D01*
X150150000Y-105030000D02*
X156150000Y-105030000D01*
X150150000Y-97410000D02*
X156150000Y-97410000D01*
X156150000Y-98170000D02*
X150150000Y-98170000D01*
X150150000Y-111820000D02*
X150150000Y-91380000D01*
X147490000Y-104140000D02*
X150150000Y-104140000D01*
X147490000Y-109220000D02*
X150150000Y-109220000D01*
X147490000Y-99060000D02*
X150150000Y-99060000D01*
X156150000Y-107570000D02*
X156150000Y-108330000D01*
X150150000Y-92750000D02*
X156150000Y-92750000D01*
X147092929Y-105790000D02*
X147490000Y-105790000D01*
X147490000Y-106680000D02*
X150150000Y-106680000D01*
X144780000Y-91440000D02*
X146050000Y-91440000D01*
%TO.C,U1*%
X140550000Y-100473000D02*
X140550000Y-102473000D01*
X138850000Y-100473000D02*
X140550000Y-100473000D01*
X138850000Y-102473000D02*
X140550000Y-102473000D01*
X138850000Y-100473000D02*
X138850000Y-102473000D01*
%TO.C,C4*%
X143004000Y-98692580D02*
X143004000Y-98411420D01*
X141984000Y-98692580D02*
X141984000Y-98411420D01*
%TO.C,R1*%
X139546359Y-98934000D02*
X139853641Y-98934000D01*
X139546359Y-99694000D02*
X139853641Y-99694000D01*
%TO.C,J1*%
X131910000Y-93980000D02*
X129250000Y-93980000D01*
X132307071Y-102490000D02*
X131910000Y-102490000D01*
X123250000Y-99950000D02*
X129250000Y-99950000D01*
X123250000Y-110870000D02*
X123250000Y-110110000D01*
X129250000Y-110870000D02*
X123250000Y-110870000D01*
X129250000Y-108330000D02*
X123250000Y-108330000D01*
X123250000Y-108330000D02*
X123250000Y-107570000D01*
X131910000Y-99060000D02*
X129250000Y-99060000D01*
X123250000Y-94870000D02*
X129250000Y-94870000D01*
X129250000Y-110810000D02*
X123250000Y-110810000D01*
X123250000Y-102490000D02*
X129250000Y-102490000D01*
X132307071Y-100710000D02*
X131910000Y-100710000D01*
X129250000Y-110570000D02*
X123250000Y-110570000D01*
X129250000Y-100710000D02*
X123250000Y-100710000D01*
X129250000Y-91380000D02*
X129250000Y-111820000D01*
X131910000Y-101600000D02*
X129250000Y-101600000D01*
X129250000Y-110690000D02*
X123250000Y-110690000D01*
X129250000Y-111820000D02*
X131910000Y-111820000D01*
X129250000Y-98170000D02*
X123250000Y-98170000D01*
X132307071Y-97410000D02*
X131910000Y-97410000D01*
X132307071Y-98170000D02*
X131910000Y-98170000D01*
X123250000Y-105030000D02*
X129250000Y-105030000D01*
X131910000Y-109220000D02*
X129250000Y-109220000D01*
X134620000Y-111760000D02*
X133350000Y-111760000D01*
X129250000Y-110330000D02*
X123250000Y-110330000D01*
X132307071Y-108330000D02*
X131910000Y-108330000D01*
X123250000Y-107570000D02*
X129250000Y-107570000D01*
X131910000Y-91380000D02*
X129250000Y-91380000D01*
X123250000Y-97410000D02*
X129250000Y-97410000D01*
X132307071Y-105790000D02*
X131910000Y-105790000D01*
X132307071Y-105030000D02*
X131910000Y-105030000D01*
X131910000Y-96520000D02*
X129250000Y-96520000D01*
X123250000Y-98170000D02*
X123250000Y-97410000D01*
X129250000Y-103250000D02*
X123250000Y-103250000D01*
X134620000Y-110490000D02*
X134620000Y-111760000D01*
X129250000Y-105790000D02*
X123250000Y-105790000D01*
X132307071Y-94870000D02*
X131910000Y-94870000D01*
X131910000Y-104140000D02*
X129250000Y-104140000D01*
X123250000Y-95630000D02*
X123250000Y-94870000D01*
X132307071Y-93090000D02*
X131910000Y-93090000D01*
X132307071Y-103250000D02*
X131910000Y-103250000D01*
X132307071Y-107570000D02*
X131910000Y-107570000D01*
X131910000Y-106680000D02*
X129250000Y-106680000D01*
X129250000Y-110450000D02*
X123250000Y-110450000D01*
X123250000Y-100710000D02*
X123250000Y-99950000D01*
X132307071Y-95630000D02*
X131910000Y-95630000D01*
X132307071Y-99950000D02*
X131910000Y-99950000D01*
X123250000Y-92330000D02*
X129250000Y-92330000D01*
X129250000Y-95630000D02*
X123250000Y-95630000D01*
X131910000Y-111820000D02*
X131910000Y-91380000D01*
X129250000Y-93090000D02*
X123250000Y-93090000D01*
X132307071Y-92330000D02*
X131910000Y-92330000D01*
X123250000Y-110110000D02*
X129250000Y-110110000D01*
X123250000Y-105790000D02*
X123250000Y-105030000D01*
X132240000Y-110110000D02*
X131910000Y-110110000D01*
X129250000Y-110210000D02*
X123250000Y-110210000D01*
X132240000Y-110870000D02*
X131910000Y-110870000D01*
X123250000Y-93090000D02*
X123250000Y-92330000D01*
X123250000Y-103250000D02*
X123250000Y-102490000D01*
%TO.C,C3*%
X140864000Y-98913836D02*
X140864000Y-98698164D01*
X141584000Y-98913836D02*
X141584000Y-98698164D01*
%TD*%
M02*
