M48
; DRILL file {KiCad (6.0.5)} date Fri Jul  1 10:08:26 2022
; FORMAT={-:-/ absolute / metric / decimal}
; #@! TF.CreationDate,2022-07-01T10:08:26+08:00
; #@! TF.GenerationSoftware,Kicad,Pcbnew,(6.0.5)
; #@! TF.FileFunction,Plated,1,2,PTH
FMAT,2
METRIC
; #@! TA.AperFunction,Plated,PTH,ViaDrill
T1C0.305
; #@! TA.AperFunction,Plated,PTH,ComponentDrill
T2C1.000
%
G90
G05
T1
X134.874Y-91.694
X134.874Y-93.98
X134.874Y-106.68
X134.874Y-109.22
X134.874Y-111.506
X136.271Y-104.14
X136.906Y-96.774
X137.16Y-91.694
X137.16Y-93.98
X137.287Y-106.68
X137.287Y-109.22
X137.287Y-111.506
X138.176Y-97.536
X138.43Y-103.251
X139.7Y-91.694
X139.7Y-93.98
X139.7Y-96.52
X139.7Y-104.14
X139.7Y-106.68
X139.7Y-109.22
X139.7Y-111.506
X141.097Y-103.251
X141.224Y-97.536
X142.24Y-91.694
X142.24Y-93.98
X142.367Y-106.68
X142.367Y-109.22
X142.367Y-111.506
X142.494Y-96.774
X143.129Y-104.14
X144.526Y-91.694
X144.526Y-93.98
X144.526Y-106.68
X144.526Y-109.22
X144.526Y-111.506
T2
X133.35Y-92.71
X133.35Y-95.25
X133.35Y-97.79
X133.35Y-100.33
X133.35Y-102.87
X133.35Y-105.41
X133.35Y-107.95
X133.35Y-110.49
X146.05Y-92.71
X146.05Y-95.25
X146.05Y-97.79
X146.05Y-100.33
X146.05Y-102.87
X146.05Y-105.41
X146.05Y-107.95
X146.05Y-110.49
T0
M30
