%TF.GenerationSoftware,KiCad,Pcbnew,(6.0.5)*%
%TF.CreationDate,2022-07-01T10:08:14+08:00*%
%TF.ProjectId,convertor,636f6e76-6572-4746-9f72-2e6b69636164,rev?*%
%TF.SameCoordinates,Original*%
%TF.FileFunction,Copper,L1,Top*%
%TF.FilePolarity,Positive*%
%FSLAX46Y46*%
G04 Gerber Fmt 4.6, Leading zero omitted, Abs format (unit mm)*
G04 Created by KiCad (PCBNEW (6.0.5)) date 2022-07-01 10:08:14*
%MOMM*%
%LPD*%
G01*
G04 APERTURE LIST*
G04 Aperture macros list*
%AMRoundRect*
0 Rectangle with rounded corners*
0 $1 Rounding radius*
0 $2 $3 $4 $5 $6 $7 $8 $9 X,Y pos of 4 corners*
0 Add a 4 corners polygon primitive as box body*
4,1,4,$2,$3,$4,$5,$6,$7,$8,$9,$2,$3,0*
0 Add four circle primitives for the rounded corners*
1,1,$1+$1,$2,$3*
1,1,$1+$1,$4,$5*
1,1,$1+$1,$6,$7*
1,1,$1+$1,$8,$9*
0 Add four rect primitives between the rounded corners*
20,1,$1+$1,$2,$3,$4,$5,0*
20,1,$1+$1,$4,$5,$6,$7,0*
20,1,$1+$1,$6,$7,$8,$9,0*
20,1,$1+$1,$8,$9,$2,$3,0*%
G04 Aperture macros list end*
%TA.AperFunction,SMDPad,CuDef*%
%ADD10RoundRect,0.135000X0.135000X0.185000X-0.135000X0.185000X-0.135000X-0.185000X0.135000X-0.185000X0*%
%TD*%
%TA.AperFunction,SMDPad,CuDef*%
%ADD11RoundRect,0.225000X0.250000X-0.225000X0.250000X0.225000X-0.250000X0.225000X-0.250000X-0.225000X0*%
%TD*%
%TA.AperFunction,SMDPad,CuDef*%
%ADD12RoundRect,0.140000X0.170000X-0.140000X0.170000X0.140000X-0.170000X0.140000X-0.170000X-0.140000X0*%
%TD*%
%TA.AperFunction,ComponentPad*%
%ADD13R,1.700000X1.700000*%
%TD*%
%TA.AperFunction,ComponentPad*%
%ADD14O,1.700000X1.700000*%
%TD*%
%TA.AperFunction,SMDPad,CuDef*%
%ADD15RoundRect,0.062500X-0.350000X-0.062500X0.350000X-0.062500X0.350000X0.062500X-0.350000X0.062500X0*%
%TD*%
%TA.AperFunction,SMDPad,CuDef*%
%ADD16RoundRect,0.062500X0.062500X-0.350000X0.062500X0.350000X-0.062500X0.350000X-0.062500X-0.350000X0*%
%TD*%
%TA.AperFunction,SMDPad,CuDef*%
%ADD17RoundRect,0.135000X-0.135000X-0.185000X0.135000X-0.185000X0.135000X0.185000X-0.135000X0.185000X0*%
%TD*%
%TA.AperFunction,ViaPad*%
%ADD18C,0.508000*%
%TD*%
%TA.AperFunction,Conductor*%
%ADD19C,0.254000*%
%TD*%
G04 APERTURE END LIST*
D10*
%TO.P,R2,1*%
%TO.N,Net-(R1-Pad2)*%
X140210000Y-98298000D03*
%TO.P,R2,2*%
%TO.N,GND*%
X139190000Y-98298000D03*
%TD*%
D11*
%TO.P,C1,1*%
%TO.N,Net-(C1-Pad1)*%
X136906000Y-99327000D03*
%TO.P,C1,2*%
%TO.N,GND*%
X136906000Y-97777000D03*
%TD*%
D12*
%TO.P,C2,1*%
%TO.N,Net-(C1-Pad1)*%
X138176000Y-99286000D03*
%TO.P,C2,2*%
%TO.N,GND*%
X138176000Y-98326000D03*
%TD*%
D13*
%TO.P,J2,1,Pin_1*%
%TO.N,Net-(C3-Pad1)*%
X146050000Y-92710000D03*
D14*
%TO.P,J2,2,Pin_2*%
X146050000Y-95250000D03*
%TO.P,J2,3,Pin_3*%
%TO.N,Net-(J2-Pad3)*%
X146050000Y-97790000D03*
%TO.P,J2,4,Pin_4*%
%TO.N,Net-(J2-Pad4)*%
X146050000Y-100330000D03*
%TO.P,J2,5,Pin_5*%
%TO.N,Net-(J2-Pad5)*%
X146050000Y-102870000D03*
%TO.P,J2,6,Pin_6*%
%TO.N,Net-(J2-Pad6)*%
X146050000Y-105410000D03*
%TO.P,J2,7,Pin_7*%
%TO.N,GND*%
X146050000Y-107950000D03*
%TO.P,J2,8,Pin_8*%
X146050000Y-110490000D03*
%TD*%
D15*
%TO.P,U1,1,VCCA*%
%TO.N,Net-(C1-Pad1)*%
X138850000Y-100673000D03*
%TO.P,U1,2,A1*%
%TO.N,Net-(U1-Pad2)*%
X138850000Y-101073000D03*
%TO.P,U1,3,A2*%
%TO.N,Net-(U1-Pad3)*%
X138850000Y-101473000D03*
%TO.P,U1,4,A3*%
%TO.N,Net-(U1-Pad4)*%
X138850000Y-101873000D03*
%TO.P,U1,5,A4*%
%TO.N,Net-(U1-Pad5)*%
X138850000Y-102273000D03*
D16*
%TO.P,U1,6,GND*%
%TO.N,GND*%
X139700000Y-102473000D03*
D15*
%TO.P,U1,7,B4*%
%TO.N,Net-(J2-Pad6)*%
X140550000Y-102273000D03*
%TO.P,U1,8,B3*%
%TO.N,Net-(J2-Pad5)*%
X140550000Y-101873000D03*
%TO.P,U1,9,B2*%
%TO.N,Net-(J2-Pad4)*%
X140550000Y-101473000D03*
%TO.P,U1,10,B1*%
%TO.N,Net-(J2-Pad3)*%
X140550000Y-101073000D03*
%TO.P,U1,11,VCCB*%
%TO.N,Net-(C3-Pad1)*%
X140550000Y-100673000D03*
D16*
%TO.P,U1,12,OE*%
%TO.N,Net-(R1-Pad2)*%
X139700000Y-100473000D03*
%TD*%
D11*
%TO.P,C4,1*%
%TO.N,Net-(C3-Pad1)*%
X142494000Y-99327000D03*
%TO.P,C4,2*%
%TO.N,GND*%
X142494000Y-97777000D03*
%TD*%
D17*
%TO.P,R1,1*%
%TO.N,Net-(C1-Pad1)*%
X139190000Y-99314000D03*
%TO.P,R1,2*%
%TO.N,Net-(R1-Pad2)*%
X140210000Y-99314000D03*
%TD*%
D13*
%TO.P,J1,1,Pin_1*%
%TO.N,GND*%
X133350000Y-110490000D03*
D14*
%TO.P,J1,2,Pin_2*%
X133350000Y-107950000D03*
%TO.P,J1,3,Pin_3*%
%TO.N,Net-(U1-Pad5)*%
X133350000Y-105410000D03*
%TO.P,J1,4,Pin_4*%
%TO.N,Net-(U1-Pad4)*%
X133350000Y-102870000D03*
%TO.P,J1,5,Pin_5*%
%TO.N,Net-(U1-Pad3)*%
X133350000Y-100330000D03*
%TO.P,J1,6,Pin_6*%
%TO.N,Net-(U1-Pad2)*%
X133350000Y-97790000D03*
%TO.P,J1,7,Pin_7*%
%TO.N,Net-(C1-Pad1)*%
X133350000Y-95250000D03*
%TO.P,J1,8,Pin_8*%
X133350000Y-92710000D03*
%TD*%
D12*
%TO.P,C3,1*%
%TO.N,Net-(C3-Pad1)*%
X141224000Y-99286000D03*
%TO.P,C3,2*%
%TO.N,GND*%
X141224000Y-98326000D03*
%TD*%
D18*
%TO.N,GND*%
X137287000Y-111506000D03*
X141224000Y-97536000D03*
X136271000Y-104140000D03*
X137287000Y-109220000D03*
X142367000Y-109220000D03*
X142240000Y-91694000D03*
X144526000Y-93980000D03*
X137287000Y-106680000D03*
X141097000Y-103251000D03*
X137160000Y-93980000D03*
X142240000Y-93980000D03*
X134874000Y-109220000D03*
X142367000Y-111506000D03*
X139700000Y-109220000D03*
X134874000Y-111506000D03*
X136906000Y-96774000D03*
X139700000Y-104140000D03*
X134874000Y-93980000D03*
X138430000Y-103251000D03*
X144526000Y-91694000D03*
X134874000Y-91694000D03*
X134874000Y-106680000D03*
X139700000Y-91694000D03*
X139700000Y-96520000D03*
X144526000Y-106680000D03*
X144526000Y-109220000D03*
X142494000Y-96774000D03*
X138176000Y-97536000D03*
X144526000Y-111506000D03*
X139700000Y-111506000D03*
X143129000Y-104140000D03*
X137160000Y-91694000D03*
X142367000Y-106680000D03*
X139700000Y-93980000D03*
X139700000Y-106680000D03*
%TD*%
D19*
%TO.N,Net-(C1-Pad1)*%
X139162000Y-99286000D02*
X139190000Y-99314000D01*
X138850000Y-100673000D02*
X138517865Y-100673000D01*
X136919000Y-99314000D02*
X136906000Y-99327000D01*
X133350000Y-95250000D02*
X133350000Y-92710000D01*
X133350000Y-95771000D02*
X133350000Y-95250000D01*
X138176000Y-100277395D02*
X138176000Y-99286000D01*
X138135000Y-99327000D02*
X138176000Y-99286000D01*
X136906000Y-99327000D02*
X133350000Y-95771000D01*
X139190000Y-99314000D02*
X136919000Y-99314000D01*
X138303010Y-100583990D02*
G75*
G03*
X138517865Y-100673000I214890J214890D01*
G01*
X138176003Y-100277395D02*
G75*
G03*
X138303001Y-100583999I433597J-5D01*
G01*
%TO.N,Net-(C3-Pad1)*%
X141224000Y-100277395D02*
X141224000Y-99286000D01*
X140550000Y-100673000D02*
X140882135Y-100673000D01*
X142494000Y-99327000D02*
X146050000Y-95771000D01*
X141224000Y-99286000D02*
X142453000Y-99286000D01*
X146050000Y-95771000D02*
X146050000Y-95250000D01*
X142453000Y-99286000D02*
X142494000Y-99327000D01*
X146050000Y-95250000D02*
X146050000Y-92710000D01*
X141096990Y-100583990D02*
G75*
G02*
X140882135Y-100673000I-214890J214890D01*
G01*
X141223997Y-100277395D02*
G75*
G02*
X141096999Y-100583999I-433597J-5D01*
G01*
%TO.N,Net-(J2-Pad3)*%
X143602093Y-100237907D02*
X146050000Y-97790000D01*
X140550000Y-101073000D02*
X141586000Y-101073000D01*
X143602096Y-100237910D02*
G75*
G02*
X141586000Y-101073000I-2016096J2016110D01*
G01*
%TO.N,Net-(J2-Pad4)*%
X140550000Y-101473000D02*
X143290554Y-101473000D01*
X146050014Y-100330014D02*
G75*
G02*
X143290554Y-101473000I-2759414J2759414D01*
G01*
%TO.N,Net-(J2-Pad5)*%
X140550000Y-101873000D02*
X143643030Y-101873000D01*
X146049991Y-102870009D02*
G75*
G03*
X143643030Y-101873000I-2406991J-2406991D01*
G01*
%TO.N,Net-(J2-Pad6)*%
X140550000Y-102273000D02*
X141799307Y-102273000D01*
X143700500Y-103060500D02*
X146050000Y-105410000D01*
X143700498Y-103060502D02*
G75*
G03*
X141799307Y-102273000I-1901198J-1901198D01*
G01*
%TO.N,Net-(R1-Pad2)*%
X140210000Y-99314000D02*
X140210000Y-98298000D01*
X139878191Y-99645809D02*
X140210000Y-99314000D01*
X139700000Y-100473000D02*
X139700000Y-100076000D01*
X139878187Y-99645805D02*
G75*
G03*
X139700000Y-100076000I430213J-430195D01*
G01*
%TO.N,Net-(U1-Pad5)*%
X138850000Y-102273000D02*
X137331285Y-102273000D01*
X135890000Y-102870000D02*
X133350000Y-105410000D01*
X135890004Y-102870004D02*
G75*
G02*
X137331285Y-102273000I1441296J-1441296D01*
G01*
%TO.N,Net-(U1-Pad4)*%
X138850000Y-101873000D02*
X135756970Y-101873000D01*
X133350009Y-102870009D02*
G75*
G02*
X135756970Y-101873000I2406991J-2406991D01*
G01*
%TO.N,Net-(U1-Pad3)*%
X138850000Y-101473000D02*
X136109446Y-101473000D01*
X133349986Y-100330014D02*
G75*
G03*
X136109446Y-101473000I2759414J2759414D01*
G01*
%TO.N,Net-(U1-Pad2)*%
X138850000Y-101073000D02*
X137144945Y-101073000D01*
X136271000Y-100711000D02*
X133350000Y-97790000D01*
X136270987Y-100711013D02*
G75*
G03*
X137144945Y-101073000I873913J873913D01*
G01*
%TD*%
%TA.AperFunction,Conductor*%
%TO.N,Net-(C1-Pad1)*%
G36*
X137098023Y-98920233D02*
G01*
X137132991Y-98937291D01*
X137173142Y-98956877D01*
X137173740Y-98957191D01*
X137201563Y-98972813D01*
X137243871Y-98996570D01*
X137244211Y-98996769D01*
X137306007Y-99034683D01*
X137363013Y-99070246D01*
X137363065Y-99070276D01*
X137363083Y-99070287D01*
X137394269Y-99088354D01*
X137418783Y-99102555D01*
X137477027Y-99130801D01*
X137477303Y-99130901D01*
X137541150Y-99154064D01*
X137541157Y-99154066D01*
X137541460Y-99154176D01*
X137541776Y-99154251D01*
X137541782Y-99154253D01*
X137576212Y-99162450D01*
X137615791Y-99171873D01*
X137703734Y-99183083D01*
X137748384Y-99184744D01*
X137797735Y-99186581D01*
X137805875Y-99190313D01*
X137809000Y-99198273D01*
X137809000Y-99429741D01*
X137805573Y-99438014D01*
X137797749Y-99441432D01*
X137776060Y-99442264D01*
X137706242Y-99444944D01*
X137706234Y-99444945D01*
X137705966Y-99444955D01*
X137619936Y-99456332D01*
X137619615Y-99456412D01*
X137619609Y-99456413D01*
X137547670Y-99474307D01*
X137547667Y-99474308D01*
X137547325Y-99474393D01*
X137546998Y-99474518D01*
X137546995Y-99474519D01*
X137494287Y-99494679D01*
X137484548Y-99498404D01*
X137484260Y-99498553D01*
X137484253Y-99498556D01*
X137428251Y-99527509D01*
X137428240Y-99527515D01*
X137428022Y-99527628D01*
X137374161Y-99561331D01*
X137319381Y-99598775D01*
X137260241Y-99639129D01*
X137259972Y-99639307D01*
X137192999Y-99681777D01*
X137192455Y-99682101D01*
X137123796Y-99720546D01*
X137121033Y-99722093D01*
X137112140Y-99723144D01*
X137107454Y-99720547D01*
X136681093Y-99333454D01*
X137054676Y-98952975D01*
X137084547Y-98922553D01*
X137092788Y-98919050D01*
X137098023Y-98920233D01*
G37*
%TD.AperFunction*%
%TD*%
%TA.AperFunction,Conductor*%
%TO.N,Net-(J2-Pad4)*%
G36*
X146369285Y-100062839D02*
G01*
X146377219Y-100066990D01*
X146379845Y-100075991D01*
X146241109Y-101150083D01*
X146236650Y-101157849D01*
X146231701Y-101160075D01*
X146051374Y-101194514D01*
X146050503Y-101194646D01*
X145887496Y-101212863D01*
X145886686Y-101212924D01*
X145741990Y-101218718D01*
X145741414Y-101218726D01*
X145608100Y-101217373D01*
X145607953Y-101217370D01*
X145583422Y-101216757D01*
X145479330Y-101214154D01*
X145479299Y-101214154D01*
X145479233Y-101214152D01*
X145479152Y-101214152D01*
X145440175Y-101214220D01*
X145348559Y-101214380D01*
X145308237Y-101216981D01*
X145209451Y-101223353D01*
X145209447Y-101223353D01*
X145209221Y-101223368D01*
X145137201Y-101234099D01*
X145054691Y-101246393D01*
X145054688Y-101246394D01*
X145054437Y-101246431D01*
X145054194Y-101246489D01*
X145054185Y-101246491D01*
X144939302Y-101274040D01*
X144877422Y-101288879D01*
X144682141Y-101352525D01*
X144673213Y-101351831D01*
X144667523Y-101345410D01*
X144588102Y-101127676D01*
X144588487Y-101118730D01*
X144594348Y-101112973D01*
X144750290Y-101043771D01*
X144750291Y-101043771D01*
X144750745Y-101043569D01*
X144875394Y-100960520D01*
X144875818Y-100960088D01*
X144965469Y-100868713D01*
X144965472Y-100868710D01*
X144965904Y-100868269D01*
X145029878Y-100766822D01*
X145074917Y-100656186D01*
X145108624Y-100536369D01*
X145138598Y-100407378D01*
X145172363Y-100269551D01*
X145172544Y-100268895D01*
X145217602Y-100122420D01*
X145217965Y-100121407D01*
X145242067Y-100062839D01*
X145278874Y-99973400D01*
X145285191Y-99967055D01*
X145290736Y-99966201D01*
X146369285Y-100062839D01*
G37*
%TD.AperFunction*%
%TD*%
%TA.AperFunction,Conductor*%
%TO.N,Net-(C1-Pad1)*%
G36*
X139078236Y-99076699D02*
G01*
X139192936Y-99187000D01*
X139316231Y-99305567D01*
X139319819Y-99313771D01*
X139316231Y-99322433D01*
X139078238Y-99551299D01*
X139069899Y-99554564D01*
X139064940Y-99553353D01*
X139028596Y-99535372D01*
X139028510Y-99535329D01*
X138989950Y-99515858D01*
X138954845Y-99498583D01*
X138954776Y-99498549D01*
X138954703Y-99498516D01*
X138954688Y-99498509D01*
X138937415Y-99490719D01*
X138921311Y-99483455D01*
X138921165Y-99483399D01*
X138921158Y-99483396D01*
X138888020Y-99470675D01*
X138888016Y-99470674D01*
X138887832Y-99470603D01*
X138887647Y-99470547D01*
X138887637Y-99470544D01*
X138852850Y-99460092D01*
X138852848Y-99460091D01*
X138852620Y-99460023D01*
X138837680Y-99456824D01*
X138814164Y-99451789D01*
X138814155Y-99451787D01*
X138813952Y-99451744D01*
X138776142Y-99446613D01*
X138770277Y-99445817D01*
X138770275Y-99445817D01*
X138770107Y-99445794D01*
X138719363Y-99442203D01*
X138719220Y-99442200D01*
X138719218Y-99442200D01*
X138671463Y-99441232D01*
X138663261Y-99437638D01*
X138660000Y-99429534D01*
X138660000Y-99198466D01*
X138663427Y-99190193D01*
X138671463Y-99186768D01*
X138719218Y-99185799D01*
X138719220Y-99185799D01*
X138719363Y-99185796D01*
X138770107Y-99182205D01*
X138770275Y-99182182D01*
X138770277Y-99182182D01*
X138776142Y-99181386D01*
X138813952Y-99176255D01*
X138814155Y-99176212D01*
X138814164Y-99176210D01*
X138837680Y-99171175D01*
X138852620Y-99167976D01*
X138852850Y-99167907D01*
X138887637Y-99157455D01*
X138887647Y-99157452D01*
X138887832Y-99157396D01*
X138888020Y-99157324D01*
X138921158Y-99144603D01*
X138921165Y-99144600D01*
X138921311Y-99144544D01*
X138937415Y-99137280D01*
X138954688Y-99129490D01*
X138954703Y-99129483D01*
X138954776Y-99129450D01*
X138989950Y-99112141D01*
X139028554Y-99092648D01*
X139064941Y-99074646D01*
X139073875Y-99074049D01*
X139078236Y-99076699D01*
G37*
%TD.AperFunction*%
%TD*%
%TA.AperFunction,Conductor*%
%TO.N,Net-(C3-Pad1)*%
G36*
X142336486Y-98909133D02*
G01*
X142340848Y-98912278D01*
X142346003Y-98918224D01*
X142346003Y-98918223D01*
X142718075Y-99347370D01*
X142550079Y-99481892D01*
X142550078Y-99481892D01*
X142548568Y-99483101D01*
X142268554Y-99707321D01*
X142259954Y-99709817D01*
X142254914Y-99708029D01*
X142187742Y-99664841D01*
X142187246Y-99664505D01*
X142123924Y-99619052D01*
X142123660Y-99618856D01*
X142067561Y-99576147D01*
X142015408Y-99536953D01*
X142015295Y-99536868D01*
X141963576Y-99501800D01*
X141908971Y-99471612D01*
X141904385Y-99469757D01*
X141848400Y-99447113D01*
X141848392Y-99447110D01*
X141848045Y-99446970D01*
X141777364Y-99428543D01*
X141777040Y-99428498D01*
X141777033Y-99428497D01*
X141693776Y-99417036D01*
X141693777Y-99417036D01*
X141693493Y-99416997D01*
X141688021Y-99416779D01*
X141683451Y-99416597D01*
X141683445Y-99416597D01*
X141683115Y-99416584D01*
X141683113Y-99416584D01*
X141593000Y-99413000D01*
X141593000Y-99159000D01*
X141700548Y-99155126D01*
X141700796Y-99155096D01*
X141700804Y-99155095D01*
X141790163Y-99144140D01*
X141790165Y-99144140D01*
X141790464Y-99144103D01*
X141832440Y-99134575D01*
X141866295Y-99126890D01*
X141866302Y-99126888D01*
X141866584Y-99126824D01*
X141932743Y-99104185D01*
X141932987Y-99104075D01*
X141992617Y-99077154D01*
X141992625Y-99077150D01*
X141992778Y-99077081D01*
X141992924Y-99077003D01*
X141992931Y-99077000D01*
X142050479Y-99046431D01*
X142050566Y-99046383D01*
X142109764Y-99013086D01*
X142109915Y-99013003D01*
X142174268Y-98978047D01*
X142174727Y-98977811D01*
X142218337Y-98956554D01*
X142248057Y-98942068D01*
X142248689Y-98941783D01*
X142323643Y-98910742D01*
X142327531Y-98909132D01*
X142336486Y-98909133D01*
G37*
%TD.AperFunction*%
%TD*%
%TA.AperFunction,Conductor*%
%TO.N,Net-(C1-Pad1)*%
G36*
X133839024Y-95166475D02*
G01*
X134187050Y-95341779D01*
X134192897Y-95348560D01*
X134193357Y-95353956D01*
X134171780Y-95498338D01*
X134171666Y-95498981D01*
X134143069Y-95637127D01*
X134143011Y-95637390D01*
X134113712Y-95764150D01*
X134113703Y-95764194D01*
X134113698Y-95764215D01*
X134088930Y-95882052D01*
X134088891Y-95882239D01*
X134073742Y-95994359D01*
X134073426Y-96103357D01*
X134073521Y-96103880D01*
X134073521Y-96103884D01*
X134084046Y-96162037D01*
X134093102Y-96212080D01*
X134093322Y-96212625D01*
X134093323Y-96212630D01*
X134117442Y-96272509D01*
X134137931Y-96323376D01*
X134138231Y-96323842D01*
X134181699Y-96391362D01*
X134213071Y-96440094D01*
X134213364Y-96440425D01*
X134213367Y-96440429D01*
X134316390Y-96556837D01*
X134319306Y-96565303D01*
X134315901Y-96572864D01*
X134152001Y-96736764D01*
X134143728Y-96740191D01*
X134135823Y-96737116D01*
X133977009Y-96591544D01*
X133824468Y-96476833D01*
X133683325Y-96391474D01*
X133683103Y-96391365D01*
X133683097Y-96391362D01*
X133550595Y-96326464D01*
X133550448Y-96326392D01*
X133422728Y-96272519D01*
X133422726Y-96272518D01*
X133422704Y-96272509D01*
X133297173Y-96220836D01*
X133296753Y-96220653D01*
X133218639Y-96184506D01*
X133170533Y-96162244D01*
X133169654Y-96161791D01*
X133039492Y-96087606D01*
X133038444Y-96086933D01*
X132900920Y-95987814D01*
X132899938Y-95987022D01*
X132757729Y-95859156D01*
X132753868Y-95851076D01*
X132754905Y-95845605D01*
X132997992Y-95312076D01*
X133208936Y-94849094D01*
X133839024Y-95166475D01*
G37*
%TD.AperFunction*%
%TD*%
%TA.AperFunction,Conductor*%
%TO.N,Net-(J2-Pad5)*%
G36*
X144850665Y-101944248D02*
G01*
X144850673Y-101944250D01*
X144850863Y-101944299D01*
X144851059Y-101944335D01*
X144851065Y-101944336D01*
X144915917Y-101956141D01*
X145031899Y-101977254D01*
X145189318Y-101993173D01*
X145330225Y-101996948D01*
X145330376Y-101996944D01*
X145461695Y-101993474D01*
X145461705Y-101993474D01*
X145461726Y-101993473D01*
X145524554Y-101990637D01*
X145590822Y-101987646D01*
X145591062Y-101987638D01*
X145724613Y-101984351D01*
X145725232Y-101984352D01*
X145814096Y-101986867D01*
X145870422Y-101988461D01*
X145871241Y-101988514D01*
X145917750Y-101993153D01*
X146035317Y-102004881D01*
X146036186Y-102005001D01*
X146218459Y-102037121D01*
X146226012Y-102041931D01*
X146228007Y-102046959D01*
X146383853Y-103118717D01*
X146381653Y-103127398D01*
X146373505Y-103132036D01*
X145296637Y-103245859D01*
X145288050Y-103243321D01*
X145284659Y-103238845D01*
X145222236Y-103093635D01*
X145221860Y-103092636D01*
X145219116Y-103084209D01*
X145174686Y-102947752D01*
X145174505Y-102947140D01*
X145138268Y-102810214D01*
X145138241Y-102810110D01*
X145105622Y-102682112D01*
X145105620Y-102682105D01*
X145105593Y-102681999D01*
X145069087Y-102563358D01*
X145021276Y-102454843D01*
X144954682Y-102357006D01*
X144861830Y-102270401D01*
X144735245Y-102195580D01*
X144734760Y-102195399D01*
X144734757Y-102195398D01*
X144577670Y-102136902D01*
X144571113Y-102130804D01*
X144570528Y-102122637D01*
X144635911Y-101900282D01*
X144641533Y-101893312D01*
X144650071Y-101892257D01*
X144850665Y-101944248D01*
G37*
%TD.AperFunction*%
%TD*%
%TA.AperFunction,Conductor*%
%TO.N,Net-(C3-Pad1)*%
G36*
X143041478Y-98615831D02*
G01*
X143205169Y-98779522D01*
X143208596Y-98787795D01*
X143205486Y-98795739D01*
X143174779Y-98828941D01*
X143143525Y-98862734D01*
X143091199Y-98931257D01*
X143053019Y-98995029D01*
X143025858Y-99056028D01*
X143006586Y-99116235D01*
X142992075Y-99177630D01*
X142992061Y-99177702D01*
X142992058Y-99177714D01*
X142979212Y-99242118D01*
X142979197Y-99242192D01*
X142964869Y-99311680D01*
X142964768Y-99312125D01*
X142945908Y-99388404D01*
X142945721Y-99389073D01*
X142921584Y-99466622D01*
X142915854Y-99473503D01*
X142910642Y-99474843D01*
X142799431Y-99477017D01*
X142552011Y-99481854D01*
X142552010Y-99481854D01*
X142550078Y-99481892D01*
X142334901Y-99486099D01*
X142346003Y-98918224D01*
X142346157Y-98910358D01*
X142349745Y-98902153D01*
X142354378Y-98899416D01*
X142431926Y-98875278D01*
X142432595Y-98875091D01*
X142508874Y-98856231D01*
X142509319Y-98856130D01*
X142541332Y-98849529D01*
X142578807Y-98841802D01*
X142619568Y-98833672D01*
X142643285Y-98828941D01*
X142643297Y-98828938D01*
X142643369Y-98828924D01*
X142645814Y-98828346D01*
X142704546Y-98814465D01*
X142704557Y-98814462D01*
X142704764Y-98814413D01*
X142764971Y-98795141D01*
X142825970Y-98767980D01*
X142826268Y-98767802D01*
X142826273Y-98767799D01*
X142889451Y-98729974D01*
X142889742Y-98729800D01*
X142958265Y-98677474D01*
X142958464Y-98677290D01*
X143025261Y-98615514D01*
X143033662Y-98612413D01*
X143041478Y-98615831D01*
G37*
%TD.AperFunction*%
%TD*%
%TA.AperFunction,Conductor*%
%TO.N,Net-(J2-Pad6)*%
G36*
X144953044Y-104132632D02*
G01*
X145092974Y-104258869D01*
X145229085Y-104353913D01*
X145356838Y-104417684D01*
X145357251Y-104417818D01*
X145357254Y-104417819D01*
X145430248Y-104441455D01*
X145479945Y-104457548D01*
X145602120Y-104480867D01*
X145602324Y-104480890D01*
X145602330Y-104480891D01*
X145727019Y-104495002D01*
X145727036Y-104495004D01*
X145727074Y-104495008D01*
X145858364Y-104507320D01*
X145858679Y-104507355D01*
X145999785Y-104525163D01*
X146000571Y-104525290D01*
X146155228Y-104555901D01*
X146156254Y-104556154D01*
X146266748Y-104588735D01*
X146320728Y-104604652D01*
X146327694Y-104610279D01*
X146329116Y-104615643D01*
X146340898Y-105218335D01*
X146350282Y-105698355D01*
X146347017Y-105706694D01*
X146338355Y-105710282D01*
X146035465Y-105704361D01*
X145255644Y-105689116D01*
X145247441Y-105685529D01*
X145244652Y-105680728D01*
X145196155Y-105516259D01*
X145195900Y-105515222D01*
X145165292Y-105360581D01*
X145165161Y-105359774D01*
X145147358Y-105218708D01*
X145147317Y-105218335D01*
X145135018Y-105087177D01*
X145135002Y-105087019D01*
X145120891Y-104962330D01*
X145120890Y-104962324D01*
X145120867Y-104962120D01*
X145097548Y-104839945D01*
X145057684Y-104716838D01*
X144993913Y-104589085D01*
X144898869Y-104452974D01*
X144772632Y-104313044D01*
X144769634Y-104304607D01*
X144773046Y-104296935D01*
X144936935Y-104133046D01*
X144945208Y-104129619D01*
X144953044Y-104132632D01*
G37*
%TD.AperFunction*%
%TD*%
%TA.AperFunction,Conductor*%
%TO.N,GND*%
G36*
X139744032Y-102708595D02*
G01*
X139788468Y-102737152D01*
X139792758Y-102742742D01*
X139799308Y-102747768D01*
X139799310Y-102747770D01*
X139867391Y-102800010D01*
X139912037Y-102834267D01*
X140050939Y-102891803D01*
X140059123Y-102892880D01*
X140059125Y-102892881D01*
X140158488Y-102905962D01*
X140162575Y-102906500D01*
X140453883Y-102906500D01*
X140464537Y-102907170D01*
X140469718Y-102908500D01*
X141749152Y-102908500D01*
X141765598Y-102909578D01*
X141785070Y-102912142D01*
X141785074Y-102912142D01*
X141792601Y-102913133D01*
X141800148Y-102912300D01*
X141800154Y-102912300D01*
X141812254Y-102910964D01*
X141833142Y-102910401D01*
X141937587Y-102916266D01*
X142022129Y-102921014D01*
X142036161Y-102922595D01*
X142249209Y-102958794D01*
X142262980Y-102961937D01*
X142470636Y-103021762D01*
X142483967Y-103026427D01*
X142683619Y-103109126D01*
X142696342Y-103115253D01*
X142776821Y-103159732D01*
X142885474Y-103219783D01*
X142897437Y-103227300D01*
X143073685Y-103352354D01*
X143084732Y-103361164D01*
X143220396Y-103482400D01*
X143236400Y-103499648D01*
X143243117Y-103508402D01*
X143270422Y-103530278D01*
X143270660Y-103530468D01*
X143280975Y-103539707D01*
X144368545Y-104627277D01*
X144384064Y-104646144D01*
X144391357Y-104657009D01*
X144490910Y-104767361D01*
X144500654Y-104779614D01*
X144546015Y-104844574D01*
X144546018Y-104844578D01*
X144555446Y-104860441D01*
X144576807Y-104903234D01*
X144583942Y-104920687D01*
X144596735Y-104960192D01*
X144600629Y-104975386D01*
X144611920Y-105034544D01*
X144613355Y-105043997D01*
X144624067Y-105138648D01*
X144624311Y-105141002D01*
X144636060Y-105266281D01*
X144636891Y-105274441D01*
X144636932Y-105274814D01*
X144637899Y-105283003D01*
X144655702Y-105424069D01*
X144658296Y-105442053D01*
X144658427Y-105442860D01*
X144661564Y-105460284D01*
X144692172Y-105614925D01*
X144697255Y-105637840D01*
X144697510Y-105638877D01*
X144703621Y-105661493D01*
X144703832Y-105662207D01*
X144746627Y-105807338D01*
X144747543Y-105810863D01*
X144748086Y-105812596D01*
X144749222Y-105817639D01*
X144750392Y-105820521D01*
X144750791Y-105821626D01*
X144750835Y-105821613D01*
X144752118Y-105825962D01*
X144760142Y-105844600D01*
X144761117Y-105846932D01*
X144831320Y-106019825D01*
X144831323Y-106019831D01*
X144833266Y-106024616D01*
X144949987Y-106215088D01*
X145096250Y-106383938D01*
X145268126Y-106526632D01*
X145283470Y-106535598D01*
X145341955Y-106569774D01*
X145390679Y-106621412D01*
X145403750Y-106691195D01*
X145377019Y-106756967D01*
X145336562Y-106790327D01*
X145328457Y-106794546D01*
X145319738Y-106800036D01*
X145149433Y-106927905D01*
X145141726Y-106934748D01*
X144994590Y-107088717D01*
X144988104Y-107096727D01*
X144868098Y-107272649D01*
X144863000Y-107281623D01*
X144773338Y-107474783D01*
X144769775Y-107484470D01*
X144714389Y-107684183D01*
X144715912Y-107692607D01*
X144728292Y-107696000D01*
X146178000Y-107696000D01*
X146246121Y-107716002D01*
X146292614Y-107769658D01*
X146304000Y-107822000D01*
X146304000Y-110618000D01*
X146283998Y-110686121D01*
X146230342Y-110732614D01*
X146178000Y-110744000D01*
X144733225Y-110744000D01*
X144719694Y-110747973D01*
X144718257Y-110757966D01*
X144748565Y-110892446D01*
X144751645Y-110902275D01*
X144831770Y-111099603D01*
X144836413Y-111108794D01*
X144947694Y-111290388D01*
X144953777Y-111298699D01*
X145093213Y-111459667D01*
X145100580Y-111466883D01*
X145184502Y-111536556D01*
X145224137Y-111595459D01*
X145225635Y-111666440D01*
X145188520Y-111726962D01*
X145124576Y-111757811D01*
X145104017Y-111759500D01*
X134766617Y-111759500D01*
X134698496Y-111739498D01*
X134652003Y-111685842D01*
X134641899Y-111615568D01*
X134651444Y-111586939D01*
X134650172Y-111586462D01*
X134698478Y-111457606D01*
X134702105Y-111442351D01*
X134707631Y-111391486D01*
X134708000Y-111384672D01*
X134708000Y-110762115D01*
X134703525Y-110746876D01*
X134702135Y-110745671D01*
X134694452Y-110744000D01*
X133222000Y-110744000D01*
X133153879Y-110723998D01*
X133107386Y-110670342D01*
X133096000Y-110618000D01*
X133096000Y-110217885D01*
X133604000Y-110217885D01*
X133608475Y-110233124D01*
X133609865Y-110234329D01*
X133617548Y-110236000D01*
X134689884Y-110236000D01*
X134705123Y-110231525D01*
X134706328Y-110230135D01*
X134707623Y-110224183D01*
X144714389Y-110224183D01*
X144715912Y-110232607D01*
X144728292Y-110236000D01*
X145777885Y-110236000D01*
X145793124Y-110231525D01*
X145794329Y-110230135D01*
X145796000Y-110222452D01*
X145796000Y-108222115D01*
X145791525Y-108206876D01*
X145790135Y-108205671D01*
X145782452Y-108204000D01*
X144733225Y-108204000D01*
X144719694Y-108207973D01*
X144718257Y-108217966D01*
X144748565Y-108352446D01*
X144751645Y-108362275D01*
X144831770Y-108559603D01*
X144836413Y-108568794D01*
X144947694Y-108750388D01*
X144953777Y-108758699D01*
X145093213Y-108919667D01*
X145100580Y-108926883D01*
X145264434Y-109062916D01*
X145272881Y-109068831D01*
X145342479Y-109109501D01*
X145391203Y-109161140D01*
X145404274Y-109230923D01*
X145377543Y-109296694D01*
X145337087Y-109330053D01*
X145328462Y-109334542D01*
X145319738Y-109340036D01*
X145149433Y-109467905D01*
X145141726Y-109474748D01*
X144994590Y-109628717D01*
X144988104Y-109636727D01*
X144868098Y-109812649D01*
X144863000Y-109821623D01*
X144773338Y-110014783D01*
X144769775Y-110024470D01*
X144714389Y-110224183D01*
X134707623Y-110224183D01*
X134707999Y-110222452D01*
X134707999Y-109595331D01*
X134707629Y-109588510D01*
X134702105Y-109537648D01*
X134698479Y-109522396D01*
X134653324Y-109401946D01*
X134644786Y-109386351D01*
X134568285Y-109284276D01*
X134555724Y-109271715D01*
X134453649Y-109195214D01*
X134438054Y-109186676D01*
X134327297Y-109145155D01*
X134270533Y-109102513D01*
X134245833Y-109035952D01*
X134261040Y-108966603D01*
X134282587Y-108937922D01*
X134384057Y-108836805D01*
X134390730Y-108828965D01*
X134515003Y-108656020D01*
X134520313Y-108647183D01*
X134614670Y-108456267D01*
X134618469Y-108446672D01*
X134680377Y-108242910D01*
X134682555Y-108232837D01*
X134683986Y-108221962D01*
X134681775Y-108207778D01*
X134668617Y-108204000D01*
X133622115Y-108204000D01*
X133606876Y-108208475D01*
X133605671Y-108209865D01*
X133604000Y-108217548D01*
X133604000Y-110217885D01*
X133096000Y-110217885D01*
X133096000Y-107822000D01*
X133116002Y-107753879D01*
X133169658Y-107707386D01*
X133222000Y-107696000D01*
X134668344Y-107696000D01*
X134681875Y-107692027D01*
X134683180Y-107682947D01*
X134641214Y-107515875D01*
X134637894Y-107506124D01*
X134552972Y-107310814D01*
X134548105Y-107301739D01*
X134432426Y-107122926D01*
X134426136Y-107114757D01*
X134282806Y-106957240D01*
X134275273Y-106950215D01*
X134108139Y-106818222D01*
X134099556Y-106812520D01*
X134062602Y-106792120D01*
X134012631Y-106741687D01*
X133997859Y-106672245D01*
X134022975Y-106605839D01*
X134050327Y-106579232D01*
X134111500Y-106535598D01*
X134229860Y-106451173D01*
X134388096Y-106293489D01*
X134447594Y-106210689D01*
X134515435Y-106116277D01*
X134518453Y-106112077D01*
X134564047Y-106019825D01*
X134615136Y-105916453D01*
X134615137Y-105916451D01*
X134617430Y-105911811D01*
X134632439Y-105862412D01*
X134638443Y-105846569D01*
X134646006Y-105830058D01*
X134646009Y-105830051D01*
X134647883Y-105825959D01*
X134696379Y-105661490D01*
X134702489Y-105638877D01*
X134702744Y-105637840D01*
X134707827Y-105614925D01*
X134738435Y-105460284D01*
X134741572Y-105442860D01*
X134741703Y-105442053D01*
X134744297Y-105424069D01*
X134762100Y-105283003D01*
X134763067Y-105274814D01*
X134763108Y-105274441D01*
X134763939Y-105266277D01*
X134775678Y-105141086D01*
X134775916Y-105138789D01*
X134786643Y-105044003D01*
X134788078Y-105034550D01*
X134799371Y-104975384D01*
X134803265Y-104960192D01*
X134816055Y-104920693D01*
X134823192Y-104903234D01*
X134844555Y-104860437D01*
X134853981Y-104844578D01*
X134899346Y-104779612D01*
X134909089Y-104767359D01*
X134909091Y-104767357D01*
X135008641Y-104657010D01*
X135035323Y-104624901D01*
X135035531Y-104625074D01*
X135044754Y-104613978D01*
X136303897Y-103354835D01*
X136316289Y-103343967D01*
X136337902Y-103327383D01*
X136349086Y-103313423D01*
X136364341Y-103297473D01*
X136471122Y-103203828D01*
X136484198Y-103193795D01*
X136623031Y-103101029D01*
X136637305Y-103092788D01*
X136787060Y-103018937D01*
X136802286Y-103012630D01*
X136960401Y-102958956D01*
X136976321Y-102954690D01*
X137140092Y-102922113D01*
X137156432Y-102919962D01*
X137290934Y-102911145D01*
X137315624Y-102911953D01*
X137317056Y-102912142D01*
X137317060Y-102912142D01*
X137324586Y-102913133D01*
X137359656Y-102909261D01*
X137373483Y-102908500D01*
X138889983Y-102908500D01*
X138897954Y-102907493D01*
X138913747Y-102906499D01*
X139237424Y-102906499D01*
X139241508Y-102905961D01*
X139241514Y-102905961D01*
X139340874Y-102892881D01*
X139340876Y-102892880D01*
X139349061Y-102891803D01*
X139487964Y-102834267D01*
X139607242Y-102742742D01*
X139611449Y-102737259D01*
X139673217Y-102703530D01*
X139744032Y-102708595D01*
G37*
%TD.AperFunction*%
%TA.AperFunction,Conductor*%
G36*
X144700928Y-91460502D02*
G01*
X144747421Y-91514158D01*
X144757525Y-91584432D01*
X144748067Y-91612801D01*
X144749385Y-91613295D01*
X144698255Y-91749684D01*
X144691500Y-91811866D01*
X144691500Y-93608134D01*
X144698255Y-93670316D01*
X144749385Y-93806705D01*
X144836739Y-93923261D01*
X144953295Y-94010615D01*
X144961703Y-94013767D01*
X145029547Y-94039201D01*
X145086311Y-94081843D01*
X145111011Y-94148405D01*
X145095803Y-94217753D01*
X145084867Y-94234421D01*
X145054134Y-94274032D01*
X145053849Y-94274413D01*
X145053820Y-94274451D01*
X145043618Y-94288089D01*
X145043582Y-94288138D01*
X145043309Y-94288503D01*
X145042831Y-94289166D01*
X145042530Y-94289599D01*
X145042525Y-94289607D01*
X145032674Y-94303781D01*
X145032407Y-94304181D01*
X145032372Y-94304231D01*
X144945373Y-94434168D01*
X144944966Y-94434776D01*
X144932311Y-94454648D01*
X144931758Y-94455562D01*
X144920132Y-94475802D01*
X144867000Y-94573371D01*
X144866634Y-94573172D01*
X144866235Y-94574493D01*
X144864743Y-94576680D01*
X144862568Y-94581365D01*
X144861627Y-94583021D01*
X144860182Y-94585892D01*
X144838129Y-94626389D01*
X144836740Y-94629879D01*
X144836737Y-94629884D01*
X144818066Y-94676777D01*
X144815291Y-94683217D01*
X144772865Y-94774614D01*
X144772863Y-94774619D01*
X144770688Y-94779305D01*
X144710989Y-94994570D01*
X144687251Y-95216695D01*
X144687548Y-95221848D01*
X144687548Y-95221851D01*
X144698512Y-95412011D01*
X144698719Y-95418561D01*
X144698782Y-95429850D01*
X144700018Y-95438122D01*
X144700110Y-95439715D01*
X144700544Y-95441641D01*
X144720361Y-95574250D01*
X144722743Y-95588761D01*
X144722858Y-95589404D01*
X144722927Y-95589760D01*
X144722940Y-95589832D01*
X144725408Y-95602628D01*
X144725497Y-95603089D01*
X144754090Y-95741217D01*
X144755479Y-95747713D01*
X144755537Y-95747975D01*
X144755557Y-95748063D01*
X144756675Y-95753012D01*
X144756679Y-95753030D01*
X144784538Y-95873560D01*
X144785061Y-95875926D01*
X144803795Y-95965050D01*
X144805350Y-95974077D01*
X144811427Y-96019053D01*
X144800727Y-96089238D01*
X144792506Y-96104128D01*
X144781605Y-96121061D01*
X144770016Y-96136362D01*
X144699870Y-96215622D01*
X144699857Y-96215637D01*
X144699074Y-96216522D01*
X144674134Y-96246980D01*
X144673771Y-96246683D01*
X144665159Y-96257108D01*
X142707712Y-98214555D01*
X142690137Y-98229195D01*
X142676607Y-98238522D01*
X142631730Y-98280026D01*
X142622670Y-98287646D01*
X142608886Y-98298172D01*
X142561407Y-98320647D01*
X142536177Y-98326611D01*
X142531892Y-98327544D01*
X142501591Y-98333588D01*
X142478584Y-98338177D01*
X142478530Y-98338188D01*
X142478359Y-98338222D01*
X142475108Y-98338882D01*
X142405620Y-98353210D01*
X142405374Y-98353263D01*
X142405361Y-98353266D01*
X142395952Y-98355303D01*
X142395908Y-98355313D01*
X142395662Y-98355366D01*
X142395217Y-98355467D01*
X142394972Y-98355525D01*
X142394938Y-98355533D01*
X142388764Y-98356997D01*
X142385622Y-98357742D01*
X142357007Y-98364817D01*
X142326764Y-98368500D01*
X142195268Y-98368500D01*
X142192022Y-98368837D01*
X142192018Y-98368837D01*
X142166354Y-98371500D01*
X142092981Y-98379113D01*
X142086440Y-98381295D01*
X142086441Y-98381295D01*
X141937676Y-98430927D01*
X141937674Y-98430928D01*
X141930732Y-98433244D01*
X141924508Y-98437096D01*
X141924507Y-98437096D01*
X141839283Y-98489834D01*
X141785287Y-98523248D01*
X141780119Y-98528425D01*
X141779218Y-98529139D01*
X141713407Y-98555774D01*
X141654381Y-98546570D01*
X141653597Y-98546106D01*
X141645986Y-98543895D01*
X141645984Y-98543894D01*
X141595005Y-98529084D01*
X141496254Y-98500394D01*
X141489849Y-98499890D01*
X141489844Y-98499889D01*
X141461940Y-98497693D01*
X141461932Y-98497693D01*
X141459484Y-98497500D01*
X141114500Y-98497500D01*
X141046379Y-98477498D01*
X140999886Y-98423842D01*
X140988500Y-98371500D01*
X140988499Y-98050484D01*
X140988499Y-98048012D01*
X140985629Y-98011534D01*
X140940269Y-97855404D01*
X140857506Y-97715459D01*
X140742541Y-97600494D01*
X140602596Y-97517731D01*
X140594985Y-97515520D01*
X140594983Y-97515519D01*
X140452644Y-97474166D01*
X140452645Y-97474166D01*
X140446466Y-97472371D01*
X140440059Y-97471867D01*
X140440055Y-97471866D01*
X140412444Y-97469693D01*
X140412438Y-97469693D01*
X140409989Y-97469500D01*
X140210122Y-97469500D01*
X140010012Y-97469501D01*
X139973534Y-97472371D01*
X139876730Y-97500495D01*
X139825017Y-97515519D01*
X139825015Y-97515520D01*
X139817404Y-97517731D01*
X139677459Y-97600494D01*
X139562494Y-97715459D01*
X139479731Y-97855404D01*
X139434371Y-98011534D01*
X139433867Y-98017941D01*
X139433866Y-98017945D01*
X139431693Y-98045556D01*
X139431500Y-98048011D01*
X139431501Y-98241583D01*
X139431501Y-98359500D01*
X139411499Y-98427620D01*
X139357844Y-98474113D01*
X139305501Y-98485500D01*
X139001382Y-98485501D01*
X138990012Y-98485501D01*
X138953534Y-98488371D01*
X138856730Y-98516495D01*
X138805017Y-98531519D01*
X138805015Y-98531520D01*
X138797404Y-98533731D01*
X138755176Y-98558705D01*
X138686363Y-98576164D01*
X138626900Y-98558704D01*
X138612425Y-98550144D01*
X138612424Y-98550144D01*
X138605597Y-98546106D01*
X138597986Y-98543895D01*
X138597984Y-98543894D01*
X138547005Y-98529084D01*
X138448254Y-98500394D01*
X138441849Y-98499890D01*
X138441844Y-98499889D01*
X138413940Y-98497693D01*
X138413932Y-98497693D01*
X138411484Y-98497500D01*
X137940516Y-98497500D01*
X137938068Y-98497693D01*
X137938060Y-98497693D01*
X137910156Y-98499889D01*
X137910151Y-98499890D01*
X137903746Y-98500394D01*
X137841056Y-98518607D01*
X137754012Y-98543895D01*
X137754009Y-98543896D01*
X137746403Y-98546106D01*
X137745873Y-98546419D01*
X137678638Y-98554718D01*
X137620969Y-98529267D01*
X137618881Y-98527618D01*
X137613702Y-98522448D01*
X137573229Y-98497500D01*
X137474331Y-98436538D01*
X137474329Y-98436537D01*
X137468101Y-98432698D01*
X137305757Y-98378851D01*
X137298920Y-98378151D01*
X137298918Y-98378150D01*
X137257599Y-98373917D01*
X137204732Y-98368500D01*
X137073235Y-98368500D01*
X137042992Y-98364817D01*
X137014377Y-98357742D01*
X137011235Y-98356997D01*
X137005061Y-98355533D01*
X137005027Y-98355525D01*
X137004782Y-98355467D01*
X137004337Y-98355366D01*
X137004091Y-98355313D01*
X137004047Y-98355303D01*
X136994638Y-98353266D01*
X136994625Y-98353263D01*
X136994379Y-98353210D01*
X136924891Y-98338882D01*
X136921638Y-98338222D01*
X136897077Y-98333323D01*
X136868121Y-98327547D01*
X136863789Y-98326603D01*
X136838600Y-98320650D01*
X136791113Y-98298172D01*
X136791112Y-98298171D01*
X136777331Y-98287648D01*
X136768266Y-98280023D01*
X136723396Y-98238525D01*
X136689067Y-98209459D01*
X136689091Y-98209430D01*
X136677205Y-98199472D01*
X134722843Y-96245110D01*
X134706660Y-96225243D01*
X134703398Y-96220282D01*
X134703394Y-96220277D01*
X134700923Y-96216519D01*
X134697941Y-96213150D01*
X134697936Y-96213143D01*
X134629982Y-96136361D01*
X134618391Y-96121057D01*
X134607491Y-96104125D01*
X134587436Y-96036020D01*
X134588571Y-96019053D01*
X134594645Y-95974104D01*
X134596203Y-95965064D01*
X134614909Y-95876065D01*
X134615451Y-95873608D01*
X134643320Y-95753030D01*
X134643368Y-95752818D01*
X134644417Y-95748175D01*
X134644442Y-95748063D01*
X134644462Y-95747976D01*
X134644520Y-95747713D01*
X134645908Y-95741218D01*
X134674505Y-95603072D01*
X134677281Y-95588623D01*
X134677395Y-95587980D01*
X134679640Y-95574235D01*
X134701217Y-95429853D01*
X134702475Y-95390110D01*
X134703490Y-95377649D01*
X134711090Y-95319928D01*
X134711091Y-95319919D01*
X134711529Y-95316590D01*
X134713156Y-95250000D01*
X134694852Y-95027361D01*
X134640431Y-94810702D01*
X134628947Y-94784289D01*
X134600180Y-94718131D01*
X134572545Y-94654577D01*
X134569993Y-94648242D01*
X134563439Y-94630609D01*
X134561869Y-94626385D01*
X134556689Y-94616872D01*
X134555661Y-94614768D01*
X134553416Y-94610582D01*
X134551354Y-94605840D01*
X134548543Y-94601495D01*
X134547696Y-94599916D01*
X134544818Y-94595074D01*
X134525566Y-94559721D01*
X134479862Y-94475793D01*
X134468109Y-94455343D01*
X134467556Y-94454430D01*
X134455029Y-94434770D01*
X134367324Y-94303780D01*
X134357168Y-94289166D01*
X134356690Y-94288503D01*
X134356417Y-94288138D01*
X134356381Y-94288089D01*
X134346179Y-94274451D01*
X134346150Y-94274413D01*
X134345865Y-94274032D01*
X134258706Y-94161695D01*
X134253575Y-94155190D01*
X134253340Y-94154897D01*
X134253135Y-94154645D01*
X134248371Y-94148802D01*
X134248302Y-94148719D01*
X134248178Y-94148566D01*
X134175120Y-94060387D01*
X134147062Y-93995171D01*
X134158716Y-93925137D01*
X134175120Y-93899612D01*
X134248080Y-93811553D01*
X134248127Y-93811495D01*
X134248178Y-93811434D01*
X134253340Y-93805102D01*
X134253575Y-93804809D01*
X134258706Y-93798304D01*
X134345865Y-93685967D01*
X134346150Y-93685586D01*
X134346179Y-93685548D01*
X134356381Y-93671910D01*
X134356417Y-93671861D01*
X134356690Y-93671496D01*
X134357168Y-93670833D01*
X134367324Y-93656219D01*
X134401808Y-93604717D01*
X134454626Y-93525831D01*
X134454629Y-93525827D01*
X134455029Y-93525229D01*
X134467556Y-93505569D01*
X134468109Y-93504656D01*
X134479861Y-93484207D01*
X134561868Y-93333616D01*
X134579223Y-93290030D01*
X134583327Y-93280814D01*
X134615141Y-93216442D01*
X134617430Y-93211811D01*
X134682370Y-92998069D01*
X134711529Y-92776590D01*
X134713156Y-92710000D01*
X134694852Y-92487361D01*
X134640431Y-92270702D01*
X134551354Y-92065840D01*
X134430014Y-91878277D01*
X134279670Y-91713051D01*
X134275619Y-91709852D01*
X134275615Y-91709848D01*
X134219311Y-91665382D01*
X134178248Y-91607464D01*
X134175016Y-91536541D01*
X134210642Y-91475130D01*
X134273813Y-91442728D01*
X134297403Y-91440500D01*
X144632807Y-91440500D01*
X144700928Y-91460502D01*
G37*
%TD.AperFunction*%
%TD*%
%TA.AperFunction,Conductor*%
%TO.N,Net-(C1-Pad1)*%
G36*
X136374739Y-98615514D02*
G01*
X136441535Y-98677290D01*
X136441734Y-98677474D01*
X136510257Y-98729800D01*
X136510548Y-98729974D01*
X136573726Y-98767799D01*
X136573731Y-98767802D01*
X136574029Y-98767980D01*
X136635028Y-98795141D01*
X136695235Y-98814413D01*
X136695442Y-98814462D01*
X136695453Y-98814465D01*
X136754185Y-98828346D01*
X136756630Y-98828924D01*
X136756702Y-98828938D01*
X136756714Y-98828941D01*
X136780431Y-98833672D01*
X136821192Y-98841802D01*
X136858667Y-98849529D01*
X136890680Y-98856130D01*
X136891125Y-98856231D01*
X136967404Y-98875091D01*
X136968073Y-98875278D01*
X137045623Y-98899416D01*
X137052503Y-98905145D01*
X137053843Y-98910357D01*
X137065099Y-99486099D01*
X136489357Y-99474843D01*
X136481153Y-99471255D01*
X136478416Y-99466624D01*
X136454278Y-99389073D01*
X136454091Y-99388404D01*
X136435231Y-99312125D01*
X136435130Y-99311680D01*
X136420802Y-99242192D01*
X136420787Y-99242118D01*
X136407941Y-99177714D01*
X136407938Y-99177702D01*
X136407924Y-99177630D01*
X136393413Y-99116235D01*
X136374141Y-99056028D01*
X136346980Y-98995029D01*
X136308800Y-98931257D01*
X136256474Y-98862734D01*
X136250366Y-98856130D01*
X136194514Y-98795739D01*
X136191413Y-98787339D01*
X136194831Y-98779522D01*
X136358522Y-98615831D01*
X136366795Y-98612404D01*
X136374739Y-98615514D01*
G37*
%TD.AperFunction*%
%TD*%
%TA.AperFunction,Conductor*%
%TO.N,Net-(C1-Pad1)*%
G36*
X133487253Y-93759307D02*
G01*
X133516291Y-93922758D01*
X133535413Y-93979999D01*
X133535413Y-93980000D01*
X133561533Y-94058186D01*
X133620395Y-94173424D01*
X133690296Y-94276304D01*
X133768653Y-94374660D01*
X133768679Y-94374691D01*
X133852764Y-94476178D01*
X133852999Y-94476471D01*
X133940158Y-94588808D01*
X133940636Y-94589471D01*
X134028341Y-94720461D01*
X134028894Y-94721374D01*
X134110901Y-94871966D01*
X134111848Y-94880871D01*
X134109059Y-94885672D01*
X133350000Y-95675000D01*
X132590941Y-94885672D01*
X132587676Y-94877333D01*
X132589099Y-94871967D01*
X132671102Y-94721380D01*
X132671655Y-94720466D01*
X132759363Y-94589471D01*
X132759841Y-94588808D01*
X132847000Y-94476471D01*
X132847235Y-94476178D01*
X132931320Y-94374691D01*
X132931346Y-94374660D01*
X133009703Y-94276304D01*
X133079604Y-94173424D01*
X133138466Y-94058186D01*
X133164586Y-93980000D01*
X133164586Y-93979999D01*
X133183708Y-93922758D01*
X133212746Y-93759307D01*
X133223000Y-93560000D01*
X133477000Y-93560000D01*
X133487253Y-93759307D01*
G37*
%TD.AperFunction*%
%TD*%
%TA.AperFunction,Conductor*%
%TO.N,Net-(C3-Pad1)*%
G36*
X146058433Y-92293769D02*
G01*
X146809059Y-93074328D01*
X146812324Y-93082667D01*
X146810901Y-93088034D01*
X146728894Y-93238625D01*
X146728341Y-93239538D01*
X146640636Y-93370528D01*
X146640158Y-93371191D01*
X146552999Y-93483528D01*
X146552764Y-93483821D01*
X146468653Y-93585339D01*
X146390296Y-93683695D01*
X146320395Y-93786575D01*
X146261533Y-93901813D01*
X146216291Y-94037241D01*
X146187253Y-94200692D01*
X146177000Y-94400000D01*
X145923000Y-94400000D01*
X145912746Y-94200692D01*
X145883708Y-94037241D01*
X145838466Y-93901813D01*
X145779604Y-93786575D01*
X145709703Y-93683695D01*
X145631346Y-93585339D01*
X145547235Y-93483821D01*
X145547000Y-93483528D01*
X145459841Y-93371191D01*
X145459363Y-93370528D01*
X145371655Y-93239533D01*
X145371102Y-93238619D01*
X145289099Y-93088033D01*
X145288152Y-93079129D01*
X145290941Y-93074328D01*
X146041567Y-92293769D01*
X146049771Y-92290181D01*
X146058433Y-92293769D01*
G37*
%TD.AperFunction*%
%TD*%
%TA.AperFunction,Conductor*%
%TO.N,Net-(R1-Pad2)*%
G36*
X140338203Y-98843363D02*
G01*
X140341794Y-98894107D01*
X140347744Y-98937952D01*
X140356023Y-98976620D01*
X140366603Y-99011832D01*
X140379455Y-99045311D01*
X140394549Y-99078776D01*
X140394583Y-99078845D01*
X140411858Y-99113950D01*
X140431308Y-99152468D01*
X140431351Y-99152554D01*
X140449353Y-99188940D01*
X140449950Y-99197875D01*
X140447299Y-99202238D01*
X140422484Y-99228043D01*
X140210000Y-99449000D01*
X139972700Y-99202237D01*
X139969435Y-99193899D01*
X139970646Y-99188940D01*
X139988605Y-99152640D01*
X139988648Y-99152554D01*
X140008141Y-99113950D01*
X140025416Y-99078845D01*
X140025450Y-99078776D01*
X140040544Y-99045311D01*
X140053396Y-99011832D01*
X140063976Y-98976620D01*
X140072255Y-98937952D01*
X140078205Y-98894107D01*
X140081796Y-98843363D01*
X140083000Y-98784000D01*
X140337000Y-98784000D01*
X140338203Y-98843363D01*
G37*
%TD.AperFunction*%
%TD*%
%TA.AperFunction,Conductor*%
%TO.N,Net-(C1-Pad1)*%
G36*
X133358433Y-92293769D02*
G01*
X134109059Y-93074328D01*
X134112324Y-93082667D01*
X134110901Y-93088034D01*
X134028894Y-93238625D01*
X134028341Y-93239538D01*
X133940636Y-93370528D01*
X133940158Y-93371191D01*
X133852999Y-93483528D01*
X133852764Y-93483821D01*
X133768653Y-93585339D01*
X133690296Y-93683695D01*
X133620395Y-93786575D01*
X133561533Y-93901813D01*
X133516291Y-94037241D01*
X133487253Y-94200692D01*
X133477000Y-94400000D01*
X133223000Y-94400000D01*
X133212746Y-94200692D01*
X133183708Y-94037241D01*
X133138466Y-93901813D01*
X133079604Y-93786575D01*
X133009703Y-93683695D01*
X132931346Y-93585339D01*
X132847235Y-93483821D01*
X132847000Y-93483528D01*
X132759841Y-93371191D01*
X132759363Y-93370528D01*
X132671655Y-93239533D01*
X132671102Y-93238619D01*
X132589099Y-93088033D01*
X132588152Y-93079129D01*
X132590941Y-93074328D01*
X133341567Y-92293769D01*
X133349771Y-92290181D01*
X133358433Y-92293769D01*
G37*
%TD.AperFunction*%
%TD*%
%TA.AperFunction,Conductor*%
%TO.N,Net-(R1-Pad2)*%
G36*
X140218433Y-98171769D02*
G01*
X140447299Y-98409762D01*
X140450564Y-98418101D01*
X140449353Y-98423060D01*
X140431351Y-98459445D01*
X140411858Y-98498049D01*
X140394549Y-98533223D01*
X140379455Y-98566688D01*
X140366603Y-98600167D01*
X140356023Y-98635379D01*
X140347744Y-98674047D01*
X140341794Y-98717892D01*
X140338203Y-98768636D01*
X140337000Y-98828000D01*
X140083000Y-98828000D01*
X140081796Y-98768636D01*
X140078205Y-98717892D01*
X140072255Y-98674047D01*
X140063976Y-98635379D01*
X140053396Y-98600167D01*
X140040544Y-98566688D01*
X140025450Y-98533223D01*
X140008141Y-98498049D01*
X139988648Y-98459445D01*
X139970646Y-98423059D01*
X139970049Y-98414125D01*
X139972699Y-98409764D01*
X140201567Y-98171769D01*
X140209771Y-98168181D01*
X140218433Y-98171769D01*
G37*
%TD.AperFunction*%
%TD*%
%TA.AperFunction,Conductor*%
%TO.N,Net-(U1-Pad2)*%
G36*
X133364535Y-97495639D02*
G01*
X134144356Y-97510884D01*
X134152559Y-97514471D01*
X134155348Y-97519272D01*
X134203844Y-97683740D01*
X134204099Y-97684777D01*
X134234707Y-97839418D01*
X134234838Y-97840225D01*
X134252641Y-97981291D01*
X134252679Y-97981635D01*
X134264991Y-98112925D01*
X134279132Y-98237879D01*
X134302451Y-98360054D01*
X134342315Y-98483161D01*
X134406086Y-98610914D01*
X134501130Y-98747025D01*
X134627368Y-98886956D01*
X134630366Y-98895393D01*
X134626954Y-98903065D01*
X134463065Y-99066954D01*
X134454792Y-99070381D01*
X134446956Y-99067368D01*
X134307025Y-98941130D01*
X134170914Y-98846086D01*
X134043161Y-98782315D01*
X134042748Y-98782181D01*
X134042745Y-98782180D01*
X133969751Y-98758544D01*
X133920054Y-98742451D01*
X133797879Y-98719132D01*
X133797675Y-98719109D01*
X133797669Y-98719108D01*
X133672980Y-98704997D01*
X133672963Y-98704995D01*
X133672925Y-98704991D01*
X133541635Y-98692679D01*
X133541320Y-98692644D01*
X133400214Y-98674836D01*
X133399428Y-98674709D01*
X133244771Y-98644098D01*
X133243745Y-98643845D01*
X133079272Y-98595348D01*
X133072306Y-98589721D01*
X133070883Y-98584355D01*
X133066499Y-98360054D01*
X133053278Y-97683740D01*
X133049718Y-97501645D01*
X133052983Y-97493306D01*
X133061645Y-97489718D01*
X133364535Y-97495639D01*
G37*
%TD.AperFunction*%
%TD*%
%TA.AperFunction,Conductor*%
%TO.N,Net-(U1-Pad5)*%
G36*
X134463065Y-104133046D02*
G01*
X134626954Y-104296935D01*
X134630381Y-104305208D01*
X134627368Y-104313044D01*
X134501130Y-104452974D01*
X134406086Y-104589085D01*
X134342315Y-104716838D01*
X134302451Y-104839945D01*
X134279132Y-104962120D01*
X134279109Y-104962324D01*
X134279108Y-104962330D01*
X134264997Y-105087019D01*
X134264981Y-105087177D01*
X134252682Y-105218335D01*
X134252641Y-105218708D01*
X134234838Y-105359774D01*
X134234707Y-105360581D01*
X134204099Y-105515222D01*
X134203844Y-105516259D01*
X134155348Y-105680728D01*
X134149722Y-105687694D01*
X134144357Y-105689116D01*
X133364535Y-105704361D01*
X133061645Y-105710282D01*
X133053306Y-105707017D01*
X133049718Y-105698355D01*
X133059102Y-105218335D01*
X133070884Y-104615644D01*
X133074471Y-104607441D01*
X133079272Y-104604652D01*
X133133251Y-104588735D01*
X133243745Y-104556154D01*
X133244771Y-104555901D01*
X133399428Y-104525290D01*
X133400214Y-104525163D01*
X133541320Y-104507355D01*
X133541635Y-104507320D01*
X133672925Y-104495008D01*
X133672963Y-104495004D01*
X133672980Y-104495002D01*
X133797669Y-104480891D01*
X133797675Y-104480890D01*
X133797879Y-104480867D01*
X133920054Y-104457548D01*
X133969751Y-104441455D01*
X134042745Y-104417819D01*
X134042748Y-104417818D01*
X134043161Y-104417684D01*
X134170914Y-104353913D01*
X134307025Y-104258869D01*
X134446956Y-104132632D01*
X134455393Y-104129634D01*
X134463065Y-104133046D01*
G37*
%TD.AperFunction*%
%TD*%
%TA.AperFunction,Conductor*%
%TO.N,Net-(R1-Pad2)*%
G36*
X140302841Y-99352457D02*
G01*
X140298938Y-99552157D01*
X140298769Y-99560784D01*
X140295181Y-99568988D01*
X140290768Y-99571655D01*
X140236351Y-99589765D01*
X140215084Y-99596610D01*
X140178783Y-99608292D01*
X140178748Y-99608304D01*
X140178735Y-99608308D01*
X140125507Y-99626647D01*
X140076419Y-99646750D01*
X140076164Y-99646884D01*
X140076165Y-99646884D01*
X140031558Y-99670408D01*
X140031550Y-99670413D01*
X140031220Y-99670587D01*
X140030912Y-99670806D01*
X140030907Y-99670809D01*
X140000242Y-99692607D01*
X139989660Y-99700129D01*
X139951489Y-99737345D01*
X139951214Y-99737713D01*
X139951213Y-99737714D01*
X139916701Y-99783879D01*
X139916697Y-99783886D01*
X139916458Y-99784205D01*
X139884315Y-99842679D01*
X139884190Y-99842985D01*
X139859042Y-99904407D01*
X139852736Y-99910765D01*
X139844296Y-99910998D01*
X139626904Y-99833709D01*
X139620257Y-99827710D01*
X139619943Y-99818384D01*
X139650552Y-99740962D01*
X139650911Y-99740148D01*
X139686316Y-99667323D01*
X139686741Y-99666528D01*
X139698319Y-99646750D01*
X139722374Y-99605659D01*
X139722789Y-99605003D01*
X139758423Y-99552576D01*
X139758721Y-99552157D01*
X139794126Y-99504698D01*
X139794190Y-99504613D01*
X139829001Y-99458820D01*
X139829041Y-99458768D01*
X139862886Y-99411304D01*
X139895368Y-99358857D01*
X139926165Y-99298022D01*
X139952086Y-99232628D01*
X139958321Y-99226199D01*
X139962734Y-99225241D01*
X139991902Y-99224671D01*
X139991903Y-99224671D01*
X140305459Y-99218541D01*
X140302841Y-99352457D01*
G37*
%TD.AperFunction*%
%TD*%
%TA.AperFunction,Conductor*%
%TO.N,Net-(C3-Pad1)*%
G36*
X141353429Y-99037673D02*
G01*
X141391786Y-99056762D01*
X141391904Y-99056822D01*
X141432097Y-99077483D01*
X141468639Y-99096008D01*
X141503296Y-99112294D01*
X141537896Y-99126269D01*
X141559177Y-99133052D01*
X141574028Y-99137786D01*
X141574032Y-99137787D01*
X141574267Y-99137862D01*
X141614235Y-99147003D01*
X141614443Y-99147033D01*
X141614452Y-99147035D01*
X141659447Y-99153594D01*
X141659457Y-99153595D01*
X141659628Y-99153620D01*
X141712274Y-99157643D01*
X141774000Y-99159000D01*
X141774000Y-99413000D01*
X141712274Y-99414356D01*
X141683117Y-99416584D01*
X141683115Y-99416584D01*
X141672941Y-99417362D01*
X141659820Y-99418364D01*
X141659811Y-99418365D01*
X141659628Y-99418379D01*
X141659445Y-99418406D01*
X141659442Y-99418406D01*
X141614452Y-99424964D01*
X141614443Y-99424966D01*
X141614235Y-99424996D01*
X141574267Y-99434137D01*
X141574032Y-99434212D01*
X141574028Y-99434213D01*
X141559177Y-99438947D01*
X141537896Y-99445730D01*
X141503296Y-99459705D01*
X141468639Y-99475991D01*
X141432924Y-99494097D01*
X141432097Y-99494516D01*
X141391842Y-99515209D01*
X141346049Y-99538000D01*
X141086094Y-99288014D01*
X141087543Y-99284313D01*
X141087538Y-99284099D01*
X141090330Y-99279913D01*
X141105987Y-99264856D01*
X141230983Y-99144654D01*
X141300832Y-99077483D01*
X141340106Y-99039715D01*
X141348445Y-99036450D01*
X141353429Y-99037673D01*
G37*
%TD.AperFunction*%
%TD*%
%TA.AperFunction,Conductor*%
%TO.N,Net-(U1-Pad4)*%
G36*
X134758796Y-101893499D02*
G01*
X134764088Y-101900282D01*
X134829471Y-102122637D01*
X134828517Y-102131541D01*
X134822329Y-102136902D01*
X134665241Y-102195398D01*
X134665238Y-102195399D01*
X134664753Y-102195580D01*
X134538168Y-102270401D01*
X134445317Y-102357006D01*
X134378723Y-102454843D01*
X134330911Y-102563358D01*
X134294406Y-102681999D01*
X134294379Y-102682105D01*
X134294377Y-102682112D01*
X134261758Y-102810110D01*
X134261731Y-102810214D01*
X134225493Y-102947140D01*
X134225312Y-102947752D01*
X134180606Y-103085059D01*
X134178139Y-103092636D01*
X134177763Y-103093635D01*
X134115341Y-103238845D01*
X134108925Y-103245092D01*
X134103363Y-103245859D01*
X133026495Y-103132036D01*
X133018628Y-103127759D01*
X133016147Y-103118717D01*
X133171993Y-102046959D01*
X133176574Y-102039265D01*
X133181541Y-102037121D01*
X133363813Y-102005001D01*
X133364682Y-102004881D01*
X133482249Y-101993153D01*
X133528758Y-101988514D01*
X133529577Y-101988461D01*
X133585903Y-101986867D01*
X133674767Y-101984352D01*
X133675386Y-101984351D01*
X133808937Y-101987638D01*
X133809177Y-101987646D01*
X133875445Y-101990637D01*
X133938273Y-101993473D01*
X133938294Y-101993474D01*
X133938304Y-101993474D01*
X134069622Y-101996944D01*
X134069773Y-101996948D01*
X134210680Y-101993173D01*
X134368100Y-101977254D01*
X134484096Y-101956138D01*
X134548933Y-101944336D01*
X134548939Y-101944335D01*
X134549135Y-101944299D01*
X134549325Y-101944250D01*
X134549333Y-101944248D01*
X134749928Y-101892257D01*
X134758796Y-101893499D01*
G37*
%TD.AperFunction*%
%TD*%
%TA.AperFunction,Conductor*%
%TO.N,Net-(C1-Pad1)*%
G36*
X138184433Y-99154769D02*
G01*
X138422286Y-99402107D01*
X138425551Y-99410446D01*
X138424327Y-99415428D01*
X138405209Y-99453842D01*
X138384516Y-99494097D01*
X138365991Y-99530639D01*
X138349705Y-99565296D01*
X138335730Y-99599896D01*
X138324137Y-99636267D01*
X138314996Y-99676235D01*
X138308379Y-99721628D01*
X138304356Y-99774274D01*
X138304353Y-99774420D01*
X138304352Y-99774436D01*
X138303251Y-99824557D01*
X138299643Y-99832753D01*
X138291554Y-99836000D01*
X138060445Y-99836000D01*
X138052172Y-99832573D01*
X138048748Y-99824557D01*
X138047647Y-99774436D01*
X138047646Y-99774420D01*
X138047643Y-99774274D01*
X138043620Y-99721628D01*
X138037003Y-99676235D01*
X138027862Y-99636267D01*
X138016269Y-99599896D01*
X138002294Y-99565296D01*
X137986008Y-99530639D01*
X137967483Y-99494097D01*
X137946790Y-99453842D01*
X137927673Y-99415429D01*
X137927055Y-99406495D01*
X137929715Y-99402106D01*
X138167567Y-99154769D01*
X138175771Y-99151181D01*
X138184433Y-99154769D01*
G37*
%TD.AperFunction*%
%TD*%
%TA.AperFunction,Conductor*%
%TO.N,Net-(C3-Pad1)*%
G36*
X146187253Y-93759307D02*
G01*
X146216291Y-93922758D01*
X146235413Y-93979999D01*
X146235413Y-93980000D01*
X146261533Y-94058186D01*
X146320395Y-94173424D01*
X146390296Y-94276304D01*
X146468653Y-94374660D01*
X146468679Y-94374691D01*
X146552764Y-94476178D01*
X146552999Y-94476471D01*
X146640158Y-94588808D01*
X146640636Y-94589471D01*
X146728341Y-94720461D01*
X146728894Y-94721374D01*
X146810901Y-94871966D01*
X146811848Y-94880871D01*
X146809059Y-94885672D01*
X146532445Y-95173317D01*
X146050000Y-95675000D01*
X145290941Y-94885672D01*
X145287676Y-94877333D01*
X145289099Y-94871967D01*
X145371102Y-94721380D01*
X145371655Y-94720466D01*
X145459363Y-94589471D01*
X145459841Y-94588808D01*
X145547000Y-94476471D01*
X145547235Y-94476178D01*
X145631320Y-94374691D01*
X145631346Y-94374660D01*
X145709703Y-94276304D01*
X145779604Y-94173424D01*
X145838466Y-94058186D01*
X145864586Y-93980000D01*
X145864586Y-93979999D01*
X145883708Y-93922758D01*
X145912746Y-93759307D01*
X145923000Y-93560000D01*
X146177000Y-93560000D01*
X146187253Y-93759307D01*
G37*
%TD.AperFunction*%
%TD*%
%TA.AperFunction,Conductor*%
%TO.N,Net-(J2-Pad3)*%
G36*
X146346694Y-97492983D02*
G01*
X146350282Y-97501645D01*
X146346722Y-97683740D01*
X146333502Y-98360054D01*
X146329117Y-98584355D01*
X146325529Y-98592559D01*
X146320728Y-98595348D01*
X146156254Y-98643845D01*
X146155228Y-98644098D01*
X146000571Y-98674709D01*
X145999785Y-98674836D01*
X145858679Y-98692644D01*
X145858364Y-98692679D01*
X145727074Y-98704991D01*
X145727036Y-98704995D01*
X145727019Y-98704997D01*
X145602330Y-98719108D01*
X145602324Y-98719109D01*
X145602120Y-98719132D01*
X145479945Y-98742451D01*
X145430248Y-98758544D01*
X145357254Y-98782180D01*
X145357251Y-98782181D01*
X145356838Y-98782315D01*
X145229085Y-98846086D01*
X145092974Y-98941130D01*
X144953044Y-99067368D01*
X144944607Y-99070366D01*
X144936935Y-99066954D01*
X144773046Y-98903065D01*
X144769619Y-98894792D01*
X144772632Y-98886955D01*
X144898621Y-98747300D01*
X144898622Y-98747299D01*
X144898869Y-98747025D01*
X144993913Y-98610914D01*
X145057684Y-98483161D01*
X145097548Y-98360054D01*
X145120867Y-98237879D01*
X145135008Y-98112925D01*
X145147320Y-97981635D01*
X145147358Y-97981291D01*
X145165161Y-97840225D01*
X145165292Y-97839418D01*
X145195900Y-97684777D01*
X145196155Y-97683740D01*
X145244652Y-97519272D01*
X145250279Y-97512306D01*
X145255643Y-97510884D01*
X146035465Y-97495639D01*
X146338355Y-97489718D01*
X146346694Y-97492983D01*
G37*
%TD.AperFunction*%
%TD*%
%TA.AperFunction,Conductor*%
%TO.N,Net-(C3-Pad1)*%
G36*
X146401043Y-95309958D02*
G01*
X146607946Y-95764069D01*
X146645095Y-95845605D01*
X146645407Y-95854554D01*
X146642271Y-95859156D01*
X146500061Y-95987022D01*
X146499079Y-95987814D01*
X146361555Y-96086933D01*
X146360507Y-96087606D01*
X146230345Y-96161791D01*
X146229466Y-96162244D01*
X146181360Y-96184506D01*
X146103246Y-96220653D01*
X146102826Y-96220836D01*
X145977295Y-96272509D01*
X145977273Y-96272518D01*
X145977271Y-96272519D01*
X145849551Y-96326392D01*
X145849404Y-96326464D01*
X145716902Y-96391362D01*
X145716896Y-96391365D01*
X145716674Y-96391474D01*
X145575531Y-96476833D01*
X145422990Y-96591544D01*
X145264177Y-96737116D01*
X145255764Y-96740180D01*
X145247999Y-96736764D01*
X145084099Y-96572864D01*
X145080672Y-96564591D01*
X145083610Y-96556837D01*
X145186632Y-96440429D01*
X145186635Y-96440425D01*
X145186928Y-96440094D01*
X145218301Y-96391362D01*
X145261768Y-96323842D01*
X145262068Y-96323376D01*
X145282557Y-96272509D01*
X145306676Y-96212630D01*
X145306677Y-96212625D01*
X145306897Y-96212080D01*
X145315954Y-96162037D01*
X145326478Y-96103884D01*
X145326478Y-96103880D01*
X145326573Y-96103357D01*
X145326257Y-95994359D01*
X145311108Y-95882239D01*
X145311069Y-95882052D01*
X145286301Y-95764215D01*
X145286296Y-95764194D01*
X145286287Y-95764150D01*
X145256988Y-95637390D01*
X145256930Y-95637127D01*
X145228337Y-95498999D01*
X145228222Y-95498356D01*
X145206643Y-95353956D01*
X145208810Y-95345267D01*
X145212952Y-95341778D01*
X145303848Y-95295993D01*
X146191064Y-94849094D01*
X146401043Y-95309958D01*
G37*
%TD.AperFunction*%
%TD*%
%TA.AperFunction,Conductor*%
%TO.N,Net-(C3-Pad1)*%
G36*
X141476000Y-99408049D02*
G01*
X141453209Y-99453842D01*
X141432516Y-99494097D01*
X141413991Y-99530639D01*
X141397705Y-99565296D01*
X141383730Y-99599896D01*
X141372137Y-99636267D01*
X141362996Y-99676235D01*
X141356379Y-99721628D01*
X141352356Y-99774274D01*
X141352353Y-99774420D01*
X141352352Y-99774436D01*
X141351251Y-99824557D01*
X141347643Y-99832753D01*
X141339554Y-99836000D01*
X141108445Y-99836000D01*
X141100172Y-99832573D01*
X141096748Y-99824557D01*
X141095647Y-99774436D01*
X141095646Y-99774420D01*
X141095643Y-99774274D01*
X141091620Y-99721628D01*
X141085003Y-99676235D01*
X141075862Y-99636267D01*
X141064269Y-99599896D01*
X141050294Y-99565296D01*
X141034008Y-99530639D01*
X141015483Y-99494097D01*
X140994790Y-99453842D01*
X140977704Y-99419511D01*
X140975673Y-99415429D01*
X140975055Y-99406495D01*
X140977715Y-99402106D01*
X140983572Y-99396016D01*
X141217913Y-99152330D01*
X141222477Y-99150334D01*
X141222187Y-99149592D01*
X141226014Y-99148094D01*
X141476000Y-99408049D01*
G37*
%TD.AperFunction*%
%TD*%
%TA.AperFunction,Conductor*%
%TO.N,Net-(U1-Pad3)*%
G36*
X134117808Y-99968876D02*
G01*
X134121126Y-99973401D01*
X134182034Y-100121407D01*
X134182397Y-100122420D01*
X134227455Y-100268895D01*
X134227636Y-100269551D01*
X134261400Y-100407377D01*
X134291375Y-100536369D01*
X134325081Y-100656186D01*
X134370120Y-100766822D01*
X134434094Y-100868269D01*
X134434526Y-100868710D01*
X134434529Y-100868713D01*
X134524181Y-100960089D01*
X134524605Y-100960521D01*
X134649253Y-101043569D01*
X134649707Y-101043771D01*
X134649708Y-101043771D01*
X134805651Y-101112973D01*
X134811823Y-101119461D01*
X134811897Y-101127676D01*
X134732476Y-101345410D01*
X134726421Y-101352008D01*
X134717858Y-101352525D01*
X134522576Y-101288879D01*
X134460670Y-101274034D01*
X134345814Y-101246491D01*
X134345805Y-101246489D01*
X134345562Y-101246431D01*
X134345311Y-101246394D01*
X134345308Y-101246393D01*
X134262801Y-101234100D01*
X134190777Y-101223368D01*
X134190551Y-101223353D01*
X134190547Y-101223353D01*
X134091761Y-101216981D01*
X134051439Y-101214380D01*
X133959823Y-101214220D01*
X133920847Y-101214152D01*
X133920766Y-101214152D01*
X133920700Y-101214154D01*
X133920669Y-101214154D01*
X133816574Y-101216757D01*
X133792045Y-101217370D01*
X133791898Y-101217373D01*
X133658585Y-101218726D01*
X133658009Y-101218718D01*
X133513312Y-101212924D01*
X133512502Y-101212863D01*
X133349496Y-101194646D01*
X133348625Y-101194514D01*
X133168299Y-101160076D01*
X133160817Y-101155158D01*
X133158891Y-101150083D01*
X133020155Y-100075991D01*
X133022494Y-100067347D01*
X133030715Y-100062839D01*
X134109263Y-99966201D01*
X134117808Y-99968876D01*
G37*
%TD.AperFunction*%
%TD*%
M02*
