%TF.GenerationSoftware,KiCad,Pcbnew,(6.0.5)*%
%TF.CreationDate,2022-07-01T10:08:14+08:00*%
%TF.ProjectId,convertor,636f6e76-6572-4746-9f72-2e6b69636164,rev?*%
%TF.SameCoordinates,Original*%
%TF.FileFunction,Copper,L2,Bot*%
%TF.FilePolarity,Positive*%
%FSLAX46Y46*%
G04 Gerber Fmt 4.6, Leading zero omitted, Abs format (unit mm)*
G04 Created by KiCad (PCBNEW (6.0.5)) date 2022-07-01 10:08:14*
%MOMM*%
%LPD*%
G01*
G04 APERTURE LIST*
%TA.AperFunction,ComponentPad*%
%ADD10R,1.700000X1.700000*%
%TD*%
%TA.AperFunction,ComponentPad*%
%ADD11O,1.700000X1.700000*%
%TD*%
%TA.AperFunction,ViaPad*%
%ADD12C,0.508000*%
%TD*%
G04 APERTURE END LIST*
D10*
%TO.P,J2,1,Pin_1*%
%TO.N,Net-(C3-Pad1)*%
X146050000Y-92710000D03*
D11*
%TO.P,J2,2,Pin_2*%
X146050000Y-95250000D03*
%TO.P,J2,3,Pin_3*%
%TO.N,Net-(J2-Pad3)*%
X146050000Y-97790000D03*
%TO.P,J2,4,Pin_4*%
%TO.N,Net-(J2-Pad4)*%
X146050000Y-100330000D03*
%TO.P,J2,5,Pin_5*%
%TO.N,Net-(J2-Pad5)*%
X146050000Y-102870000D03*
%TO.P,J2,6,Pin_6*%
%TO.N,Net-(J2-Pad6)*%
X146050000Y-105410000D03*
%TO.P,J2,7,Pin_7*%
%TO.N,GND*%
X146050000Y-107950000D03*
%TO.P,J2,8,Pin_8*%
X146050000Y-110490000D03*
%TD*%
D10*
%TO.P,J1,1,Pin_1*%
%TO.N,GND*%
X133350000Y-110490000D03*
D11*
%TO.P,J1,2,Pin_2*%
X133350000Y-107950000D03*
%TO.P,J1,3,Pin_3*%
%TO.N,Net-(U1-Pad5)*%
X133350000Y-105410000D03*
%TO.P,J1,4,Pin_4*%
%TO.N,Net-(U1-Pad4)*%
X133350000Y-102870000D03*
%TO.P,J1,5,Pin_5*%
%TO.N,Net-(U1-Pad3)*%
X133350000Y-100330000D03*
%TO.P,J1,6,Pin_6*%
%TO.N,Net-(U1-Pad2)*%
X133350000Y-97790000D03*
%TO.P,J1,7,Pin_7*%
%TO.N,Net-(C1-Pad1)*%
X133350000Y-95250000D03*
%TO.P,J1,8,Pin_8*%
X133350000Y-92710000D03*
%TD*%
D12*
%TO.N,GND*%
X137287000Y-111506000D03*
X141224000Y-97536000D03*
X136271000Y-104140000D03*
X137287000Y-109220000D03*
X142367000Y-109220000D03*
X142240000Y-91694000D03*
X144526000Y-93980000D03*
X137287000Y-106680000D03*
X141097000Y-103251000D03*
X137160000Y-93980000D03*
X142240000Y-93980000D03*
X134874000Y-109220000D03*
X142367000Y-111506000D03*
X139700000Y-109220000D03*
X134874000Y-111506000D03*
X136906000Y-96774000D03*
X139700000Y-104140000D03*
X134874000Y-93980000D03*
X138430000Y-103251000D03*
X144526000Y-91694000D03*
X134874000Y-91694000D03*
X134874000Y-106680000D03*
X139700000Y-91694000D03*
X139700000Y-96520000D03*
X144526000Y-106680000D03*
X144526000Y-109220000D03*
X142494000Y-96774000D03*
X138176000Y-97536000D03*
X144526000Y-111506000D03*
X139700000Y-111506000D03*
X143129000Y-104140000D03*
X137160000Y-91694000D03*
X142367000Y-106680000D03*
X139700000Y-93980000D03*
X139700000Y-106680000D03*
%TD*%
%TA.AperFunction,Conductor*%
%TO.N,GND*%
G36*
X144700928Y-91460502D02*
G01*
X144747421Y-91514158D01*
X144757525Y-91584432D01*
X144748067Y-91612801D01*
X144749385Y-91613295D01*
X144698255Y-91749684D01*
X144691500Y-91811866D01*
X144691500Y-93608134D01*
X144698255Y-93670316D01*
X144749385Y-93806705D01*
X144836739Y-93923261D01*
X144953295Y-94010615D01*
X144961704Y-94013767D01*
X144961705Y-94013768D01*
X145070451Y-94054535D01*
X145127216Y-94097176D01*
X145151916Y-94163738D01*
X145136709Y-94233087D01*
X145117316Y-94259568D01*
X144990629Y-94392138D01*
X144864743Y-94576680D01*
X144770688Y-94779305D01*
X144710989Y-94994570D01*
X144687251Y-95216695D01*
X144687548Y-95221848D01*
X144687548Y-95221851D01*
X144693011Y-95316590D01*
X144700110Y-95439715D01*
X144701247Y-95444761D01*
X144701248Y-95444767D01*
X144721119Y-95532939D01*
X144749222Y-95657639D01*
X144833266Y-95864616D01*
X144949987Y-96055088D01*
X145096250Y-96223938D01*
X145268126Y-96366632D01*
X145283470Y-96375598D01*
X145341445Y-96409476D01*
X145390169Y-96461114D01*
X145403240Y-96530897D01*
X145376509Y-96596669D01*
X145336055Y-96630027D01*
X145323607Y-96636507D01*
X145319474Y-96639610D01*
X145319471Y-96639612D01*
X145295247Y-96657800D01*
X145144965Y-96770635D01*
X144990629Y-96932138D01*
X144864743Y-97116680D01*
X144770688Y-97319305D01*
X144710989Y-97534570D01*
X144687251Y-97756695D01*
X144687548Y-97761848D01*
X144687548Y-97761851D01*
X144693011Y-97856590D01*
X144700110Y-97979715D01*
X144701247Y-97984761D01*
X144701248Y-97984767D01*
X144721119Y-98072939D01*
X144749222Y-98197639D01*
X144833266Y-98404616D01*
X144949987Y-98595088D01*
X145096250Y-98763938D01*
X145268126Y-98906632D01*
X145283470Y-98915598D01*
X145341445Y-98949476D01*
X145390169Y-99001114D01*
X145403240Y-99070897D01*
X145376509Y-99136669D01*
X145336055Y-99170027D01*
X145323607Y-99176507D01*
X145319474Y-99179610D01*
X145319471Y-99179612D01*
X145295247Y-99197800D01*
X145144965Y-99310635D01*
X144990629Y-99472138D01*
X144864743Y-99656680D01*
X144770688Y-99859305D01*
X144710989Y-100074570D01*
X144687251Y-100296695D01*
X144687548Y-100301848D01*
X144687548Y-100301851D01*
X144693011Y-100396590D01*
X144700110Y-100519715D01*
X144701247Y-100524761D01*
X144701248Y-100524767D01*
X144721119Y-100612939D01*
X144749222Y-100737639D01*
X144833266Y-100944616D01*
X144949987Y-101135088D01*
X145096250Y-101303938D01*
X145268126Y-101446632D01*
X145283470Y-101455598D01*
X145341445Y-101489476D01*
X145390169Y-101541114D01*
X145403240Y-101610897D01*
X145376509Y-101676669D01*
X145336055Y-101710027D01*
X145323607Y-101716507D01*
X145319474Y-101719610D01*
X145319471Y-101719612D01*
X145295247Y-101737800D01*
X145144965Y-101850635D01*
X144990629Y-102012138D01*
X144864743Y-102196680D01*
X144770688Y-102399305D01*
X144710989Y-102614570D01*
X144687251Y-102836695D01*
X144687548Y-102841848D01*
X144687548Y-102841851D01*
X144693011Y-102936590D01*
X144700110Y-103059715D01*
X144701247Y-103064761D01*
X144701248Y-103064767D01*
X144721119Y-103152939D01*
X144749222Y-103277639D01*
X144833266Y-103484616D01*
X144949987Y-103675088D01*
X145096250Y-103843938D01*
X145268126Y-103986632D01*
X145283470Y-103995598D01*
X145341445Y-104029476D01*
X145390169Y-104081114D01*
X145403240Y-104150897D01*
X145376509Y-104216669D01*
X145336055Y-104250027D01*
X145323607Y-104256507D01*
X145319474Y-104259610D01*
X145319471Y-104259612D01*
X145295247Y-104277800D01*
X145144965Y-104390635D01*
X144990629Y-104552138D01*
X144864743Y-104736680D01*
X144770688Y-104939305D01*
X144710989Y-105154570D01*
X144687251Y-105376695D01*
X144687548Y-105381848D01*
X144687548Y-105381851D01*
X144693011Y-105476590D01*
X144700110Y-105599715D01*
X144701247Y-105604761D01*
X144701248Y-105604767D01*
X144721119Y-105692939D01*
X144749222Y-105817639D01*
X144833266Y-106024616D01*
X144949987Y-106215088D01*
X145096250Y-106383938D01*
X145268126Y-106526632D01*
X145283470Y-106535598D01*
X145341955Y-106569774D01*
X145390679Y-106621412D01*
X145403750Y-106691195D01*
X145377019Y-106756967D01*
X145336562Y-106790327D01*
X145328457Y-106794546D01*
X145319738Y-106800036D01*
X145149433Y-106927905D01*
X145141726Y-106934748D01*
X144994590Y-107088717D01*
X144988104Y-107096727D01*
X144868098Y-107272649D01*
X144863000Y-107281623D01*
X144773338Y-107474783D01*
X144769775Y-107484470D01*
X144714389Y-107684183D01*
X144715912Y-107692607D01*
X144728292Y-107696000D01*
X146178000Y-107696000D01*
X146246121Y-107716002D01*
X146292614Y-107769658D01*
X146304000Y-107822000D01*
X146304000Y-110618000D01*
X146283998Y-110686121D01*
X146230342Y-110732614D01*
X146178000Y-110744000D01*
X144733225Y-110744000D01*
X144719694Y-110747973D01*
X144718257Y-110757966D01*
X144748565Y-110892446D01*
X144751645Y-110902275D01*
X144831770Y-111099603D01*
X144836413Y-111108794D01*
X144947694Y-111290388D01*
X144953777Y-111298699D01*
X145093213Y-111459667D01*
X145100580Y-111466883D01*
X145184502Y-111536556D01*
X145224137Y-111595459D01*
X145225635Y-111666440D01*
X145188520Y-111726962D01*
X145124576Y-111757811D01*
X145104017Y-111759500D01*
X134766617Y-111759500D01*
X134698496Y-111739498D01*
X134652003Y-111685842D01*
X134641899Y-111615568D01*
X134651444Y-111586939D01*
X134650172Y-111586462D01*
X134698478Y-111457606D01*
X134702105Y-111442351D01*
X134707631Y-111391486D01*
X134708000Y-111384672D01*
X134708000Y-110762115D01*
X134703525Y-110746876D01*
X134702135Y-110745671D01*
X134694452Y-110744000D01*
X133222000Y-110744000D01*
X133153879Y-110723998D01*
X133107386Y-110670342D01*
X133096000Y-110618000D01*
X133096000Y-110217885D01*
X133604000Y-110217885D01*
X133608475Y-110233124D01*
X133609865Y-110234329D01*
X133617548Y-110236000D01*
X134689884Y-110236000D01*
X134705123Y-110231525D01*
X134706328Y-110230135D01*
X134707623Y-110224183D01*
X144714389Y-110224183D01*
X144715912Y-110232607D01*
X144728292Y-110236000D01*
X145777885Y-110236000D01*
X145793124Y-110231525D01*
X145794329Y-110230135D01*
X145796000Y-110222452D01*
X145796000Y-108222115D01*
X145791525Y-108206876D01*
X145790135Y-108205671D01*
X145782452Y-108204000D01*
X144733225Y-108204000D01*
X144719694Y-108207973D01*
X144718257Y-108217966D01*
X144748565Y-108352446D01*
X144751645Y-108362275D01*
X144831770Y-108559603D01*
X144836413Y-108568794D01*
X144947694Y-108750388D01*
X144953777Y-108758699D01*
X145093213Y-108919667D01*
X145100580Y-108926883D01*
X145264434Y-109062916D01*
X145272881Y-109068831D01*
X145342479Y-109109501D01*
X145391203Y-109161140D01*
X145404274Y-109230923D01*
X145377543Y-109296694D01*
X145337087Y-109330053D01*
X145328462Y-109334542D01*
X145319738Y-109340036D01*
X145149433Y-109467905D01*
X145141726Y-109474748D01*
X144994590Y-109628717D01*
X144988104Y-109636727D01*
X144868098Y-109812649D01*
X144863000Y-109821623D01*
X144773338Y-110014783D01*
X144769775Y-110024470D01*
X144714389Y-110224183D01*
X134707623Y-110224183D01*
X134707999Y-110222452D01*
X134707999Y-109595331D01*
X134707629Y-109588510D01*
X134702105Y-109537648D01*
X134698479Y-109522396D01*
X134653324Y-109401946D01*
X134644786Y-109386351D01*
X134568285Y-109284276D01*
X134555724Y-109271715D01*
X134453649Y-109195214D01*
X134438054Y-109186676D01*
X134327297Y-109145155D01*
X134270533Y-109102513D01*
X134245833Y-109035952D01*
X134261040Y-108966603D01*
X134282587Y-108937922D01*
X134384057Y-108836805D01*
X134390730Y-108828965D01*
X134515003Y-108656020D01*
X134520313Y-108647183D01*
X134614670Y-108456267D01*
X134618469Y-108446672D01*
X134680377Y-108242910D01*
X134682555Y-108232837D01*
X134683986Y-108221962D01*
X134681775Y-108207778D01*
X134668617Y-108204000D01*
X133622115Y-108204000D01*
X133606876Y-108208475D01*
X133605671Y-108209865D01*
X133604000Y-108217548D01*
X133604000Y-110217885D01*
X133096000Y-110217885D01*
X133096000Y-107822000D01*
X133116002Y-107753879D01*
X133169658Y-107707386D01*
X133222000Y-107696000D01*
X134668344Y-107696000D01*
X134681875Y-107692027D01*
X134683180Y-107682947D01*
X134641214Y-107515875D01*
X134637894Y-107506124D01*
X134552972Y-107310814D01*
X134548105Y-107301739D01*
X134432426Y-107122926D01*
X134426136Y-107114757D01*
X134282806Y-106957240D01*
X134275273Y-106950215D01*
X134108139Y-106818222D01*
X134099556Y-106812520D01*
X134062602Y-106792120D01*
X134012631Y-106741687D01*
X133997859Y-106672245D01*
X134022975Y-106605839D01*
X134050327Y-106579232D01*
X134111500Y-106535598D01*
X134229860Y-106451173D01*
X134388096Y-106293489D01*
X134447594Y-106210689D01*
X134515435Y-106116277D01*
X134518453Y-106112077D01*
X134617430Y-105911811D01*
X134682370Y-105698069D01*
X134711529Y-105476590D01*
X134713156Y-105410000D01*
X134694852Y-105187361D01*
X134640431Y-104970702D01*
X134551354Y-104765840D01*
X134430014Y-104578277D01*
X134279670Y-104413051D01*
X134275619Y-104409852D01*
X134275615Y-104409848D01*
X134108414Y-104277800D01*
X134108410Y-104277798D01*
X134104359Y-104274598D01*
X134063053Y-104251796D01*
X134013084Y-104201364D01*
X133998312Y-104131921D01*
X134023428Y-104065516D01*
X134050780Y-104038909D01*
X134111500Y-103995598D01*
X134229860Y-103911173D01*
X134388096Y-103753489D01*
X134447594Y-103670689D01*
X134515435Y-103576277D01*
X134518453Y-103572077D01*
X134617430Y-103371811D01*
X134682370Y-103158069D01*
X134711529Y-102936590D01*
X134713156Y-102870000D01*
X134694852Y-102647361D01*
X134640431Y-102430702D01*
X134551354Y-102225840D01*
X134430014Y-102038277D01*
X134279670Y-101873051D01*
X134275619Y-101869852D01*
X134275615Y-101869848D01*
X134108414Y-101737800D01*
X134108410Y-101737798D01*
X134104359Y-101734598D01*
X134063053Y-101711796D01*
X134013084Y-101661364D01*
X133998312Y-101591921D01*
X134023428Y-101525516D01*
X134050780Y-101498909D01*
X134111500Y-101455598D01*
X134229860Y-101371173D01*
X134388096Y-101213489D01*
X134447594Y-101130689D01*
X134515435Y-101036277D01*
X134518453Y-101032077D01*
X134617430Y-100831811D01*
X134682370Y-100618069D01*
X134711529Y-100396590D01*
X134713156Y-100330000D01*
X134694852Y-100107361D01*
X134640431Y-99890702D01*
X134551354Y-99685840D01*
X134430014Y-99498277D01*
X134279670Y-99333051D01*
X134275619Y-99329852D01*
X134275615Y-99329848D01*
X134108414Y-99197800D01*
X134108410Y-99197798D01*
X134104359Y-99194598D01*
X134063053Y-99171796D01*
X134013084Y-99121364D01*
X133998312Y-99051921D01*
X134023428Y-98985516D01*
X134050780Y-98958909D01*
X134111500Y-98915598D01*
X134229860Y-98831173D01*
X134388096Y-98673489D01*
X134447594Y-98590689D01*
X134515435Y-98496277D01*
X134518453Y-98492077D01*
X134617430Y-98291811D01*
X134682370Y-98078069D01*
X134711529Y-97856590D01*
X134713156Y-97790000D01*
X134694852Y-97567361D01*
X134640431Y-97350702D01*
X134551354Y-97145840D01*
X134430014Y-96958277D01*
X134279670Y-96793051D01*
X134275619Y-96789852D01*
X134275615Y-96789848D01*
X134108414Y-96657800D01*
X134108410Y-96657798D01*
X134104359Y-96654598D01*
X134063053Y-96631796D01*
X134013084Y-96581364D01*
X133998312Y-96511921D01*
X134023428Y-96445516D01*
X134050780Y-96418909D01*
X134111500Y-96375598D01*
X134229860Y-96291173D01*
X134388096Y-96133489D01*
X134447594Y-96050689D01*
X134515435Y-95956277D01*
X134518453Y-95952077D01*
X134617430Y-95751811D01*
X134682370Y-95538069D01*
X134711529Y-95316590D01*
X134713156Y-95250000D01*
X134694852Y-95027361D01*
X134640431Y-94810702D01*
X134551354Y-94605840D01*
X134430014Y-94418277D01*
X134279670Y-94253051D01*
X134275619Y-94249852D01*
X134275615Y-94249848D01*
X134108414Y-94117800D01*
X134108410Y-94117798D01*
X134104359Y-94114598D01*
X134063053Y-94091796D01*
X134013084Y-94041364D01*
X133998312Y-93971921D01*
X134023428Y-93905516D01*
X134050780Y-93878909D01*
X134141932Y-93813891D01*
X134229860Y-93751173D01*
X134388096Y-93593489D01*
X134518453Y-93412077D01*
X134617430Y-93211811D01*
X134682370Y-92998069D01*
X134711529Y-92776590D01*
X134713156Y-92710000D01*
X134694852Y-92487361D01*
X134640431Y-92270702D01*
X134551354Y-92065840D01*
X134430014Y-91878277D01*
X134279670Y-91713051D01*
X134275619Y-91709852D01*
X134275615Y-91709848D01*
X134219311Y-91665382D01*
X134178248Y-91607464D01*
X134175016Y-91536541D01*
X134210642Y-91475130D01*
X134273813Y-91442728D01*
X134297403Y-91440500D01*
X144632807Y-91440500D01*
X144700928Y-91460502D01*
G37*
%TD.AperFunction*%
%TD*%
M02*
