%TF.GenerationSoftware,KiCad,Pcbnew,(6.0.5)*%
%TF.CreationDate,2022-07-01T10:08:14+08:00*%
%TF.ProjectId,convertor,636f6e76-6572-4746-9f72-2e6b69636164,rev?*%
%TF.SameCoordinates,Original*%
%TF.FileFunction,Legend,Bot*%
%TF.FilePolarity,Positive*%
%FSLAX46Y46*%
G04 Gerber Fmt 4.6, Leading zero omitted, Abs format (unit mm)*
G04 Created by KiCad (PCBNEW (6.0.5)) date 2022-07-01 10:08:14*
%MOMM*%
%LPD*%
G01*
G04 APERTURE LIST*
%ADD10C,0.150000*%
G04 APERTURE END LIST*
D10*
X134620000Y-99060000D02*
X144780000Y-99060000D01*
X134620000Y-96520000D02*
X144780000Y-96520000D01*
X134620000Y-93980000D02*
X144780000Y-93980000D01*
X134620000Y-106680000D02*
X144780000Y-106680000D01*
X144780000Y-111760000D02*
X144780000Y-91440000D01*
X139700000Y-91440000D02*
X139700000Y-111760000D01*
X134620000Y-101600000D02*
X144780000Y-101600000D01*
X134620000Y-91440000D02*
X144780000Y-91440000D01*
X134620000Y-109220000D02*
X144780000Y-109220000D01*
X134620000Y-111760000D02*
X134620000Y-91440000D01*
X134620000Y-111760000D02*
X144780000Y-111760000D01*
X134620000Y-104140000D02*
X144780000Y-104140000D01*
X144041761Y-102798571D02*
X143898904Y-102846190D01*
X143851285Y-102893809D01*
X143803666Y-102989047D01*
X143803666Y-103131904D01*
X143851285Y-103227142D01*
X143898904Y-103274761D01*
X143994142Y-103322380D01*
X144375095Y-103322380D01*
X144375095Y-102322380D01*
X144041761Y-102322380D01*
X143946523Y-102370000D01*
X143898904Y-102417619D01*
X143851285Y-102512857D01*
X143851285Y-102608095D01*
X143898904Y-102703333D01*
X143946523Y-102750952D01*
X144041761Y-102798571D01*
X144375095Y-102798571D01*
X143470333Y-102322380D02*
X142851285Y-102322380D01*
X143184619Y-102703333D01*
X143041761Y-102703333D01*
X142946523Y-102750952D01*
X142898904Y-102798571D01*
X142851285Y-102893809D01*
X142851285Y-103131904D01*
X142898904Y-103227142D01*
X142946523Y-103274761D01*
X143041761Y-103322380D01*
X143327476Y-103322380D01*
X143422714Y-103274761D01*
X143470333Y-103227142D01*
X143890904Y-109990000D02*
X143986142Y-109942380D01*
X144129000Y-109942380D01*
X144271857Y-109990000D01*
X144367095Y-110085238D01*
X144414714Y-110180476D01*
X144462333Y-110370952D01*
X144462333Y-110513809D01*
X144414714Y-110704285D01*
X144367095Y-110799523D01*
X144271857Y-110894761D01*
X144129000Y-110942380D01*
X144033761Y-110942380D01*
X143890904Y-110894761D01*
X143843285Y-110847142D01*
X143843285Y-110513809D01*
X144033761Y-110513809D01*
X143414714Y-110942380D02*
X143414714Y-109942380D01*
X142843285Y-110942380D01*
X142843285Y-109942380D01*
X142367095Y-110942380D02*
X142367095Y-109942380D01*
X142129000Y-109942380D01*
X141986142Y-109990000D01*
X141890904Y-110085238D01*
X141843285Y-110180476D01*
X141795666Y-110370952D01*
X141795666Y-110513809D01*
X141843285Y-110704285D01*
X141890904Y-110799523D01*
X141986142Y-110894761D01*
X142129000Y-110942380D01*
X142367095Y-110942380D01*
X144041761Y-100258571D02*
X143898904Y-100306190D01*
X143851285Y-100353809D01*
X143803666Y-100449047D01*
X143803666Y-100591904D01*
X143851285Y-100687142D01*
X143898904Y-100734761D01*
X143994142Y-100782380D01*
X144375095Y-100782380D01*
X144375095Y-99782380D01*
X144041761Y-99782380D01*
X143946523Y-99830000D01*
X143898904Y-99877619D01*
X143851285Y-99972857D01*
X143851285Y-100068095D01*
X143898904Y-100163333D01*
X143946523Y-100210952D01*
X144041761Y-100258571D01*
X144375095Y-100258571D01*
X143422714Y-99877619D02*
X143375095Y-99830000D01*
X143279857Y-99782380D01*
X143041761Y-99782380D01*
X142946523Y-99830000D01*
X142898904Y-99877619D01*
X142851285Y-99972857D01*
X142851285Y-100068095D01*
X142898904Y-100210952D01*
X143470333Y-100782380D01*
X142851285Y-100782380D01*
X137032904Y-109990000D02*
X137128142Y-109942380D01*
X137271000Y-109942380D01*
X137413857Y-109990000D01*
X137509095Y-110085238D01*
X137556714Y-110180476D01*
X137604333Y-110370952D01*
X137604333Y-110513809D01*
X137556714Y-110704285D01*
X137509095Y-110799523D01*
X137413857Y-110894761D01*
X137271000Y-110942380D01*
X137175761Y-110942380D01*
X137032904Y-110894761D01*
X136985285Y-110847142D01*
X136985285Y-110513809D01*
X137175761Y-110513809D01*
X136556714Y-110942380D02*
X136556714Y-109942380D01*
X135985285Y-110942380D01*
X135985285Y-109942380D01*
X135509095Y-110942380D02*
X135509095Y-109942380D01*
X135271000Y-109942380D01*
X135128142Y-109990000D01*
X135032904Y-110085238D01*
X134985285Y-110180476D01*
X134937666Y-110370952D01*
X134937666Y-110513809D01*
X134985285Y-110704285D01*
X135032904Y-110799523D01*
X135128142Y-110894761D01*
X135271000Y-110942380D01*
X135509095Y-110942380D01*
X137032904Y-107577000D02*
X137128142Y-107529380D01*
X137271000Y-107529380D01*
X137413857Y-107577000D01*
X137509095Y-107672238D01*
X137556714Y-107767476D01*
X137604333Y-107957952D01*
X137604333Y-108100809D01*
X137556714Y-108291285D01*
X137509095Y-108386523D01*
X137413857Y-108481761D01*
X137271000Y-108529380D01*
X137175761Y-108529380D01*
X137032904Y-108481761D01*
X136985285Y-108434142D01*
X136985285Y-108100809D01*
X137175761Y-108100809D01*
X136556714Y-108529380D02*
X136556714Y-107529380D01*
X135985285Y-108529380D01*
X135985285Y-107529380D01*
X135509095Y-108529380D02*
X135509095Y-107529380D01*
X135271000Y-107529380D01*
X135128142Y-107577000D01*
X135032904Y-107672238D01*
X134985285Y-107767476D01*
X134937666Y-107957952D01*
X134937666Y-108100809D01*
X134985285Y-108291285D01*
X135032904Y-108386523D01*
X135128142Y-108481761D01*
X135271000Y-108529380D01*
X135509095Y-108529380D01*
X136477285Y-100496666D02*
X136001095Y-100496666D01*
X136572523Y-100782380D02*
X136239190Y-99782380D01*
X135905857Y-100782380D01*
X135620142Y-99877619D02*
X135572523Y-99830000D01*
X135477285Y-99782380D01*
X135239190Y-99782380D01*
X135143952Y-99830000D01*
X135096333Y-99877619D01*
X135048714Y-99972857D01*
X135048714Y-100068095D01*
X135096333Y-100210952D01*
X135667761Y-100782380D01*
X135048714Y-100782380D01*
X138540904Y-94702380D02*
X138207571Y-95702380D01*
X137874238Y-94702380D01*
X136969476Y-95607142D02*
X137017095Y-95654761D01*
X137159952Y-95702380D01*
X137255190Y-95702380D01*
X137398047Y-95654761D01*
X137493285Y-95559523D01*
X137540904Y-95464285D01*
X137588523Y-95273809D01*
X137588523Y-95130952D01*
X137540904Y-94940476D01*
X137493285Y-94845238D01*
X137398047Y-94750000D01*
X137255190Y-94702380D01*
X137159952Y-94702380D01*
X137017095Y-94750000D01*
X136969476Y-94797619D01*
X135969476Y-95607142D02*
X136017095Y-95654761D01*
X136159952Y-95702380D01*
X136255190Y-95702380D01*
X136398047Y-95654761D01*
X136493285Y-95559523D01*
X136540904Y-95464285D01*
X136588523Y-95273809D01*
X136588523Y-95130952D01*
X136540904Y-94940476D01*
X136493285Y-94845238D01*
X136398047Y-94750000D01*
X136255190Y-94702380D01*
X136159952Y-94702380D01*
X136017095Y-94750000D01*
X135969476Y-94797619D01*
X135588523Y-95416666D02*
X135112333Y-95416666D01*
X135683761Y-95702380D02*
X135350428Y-94702380D01*
X135017095Y-95702380D01*
X144454333Y-94829380D02*
X144121000Y-95829380D01*
X143787666Y-94829380D01*
X142882904Y-95734142D02*
X142930523Y-95781761D01*
X143073380Y-95829380D01*
X143168619Y-95829380D01*
X143311476Y-95781761D01*
X143406714Y-95686523D01*
X143454333Y-95591285D01*
X143501952Y-95400809D01*
X143501952Y-95257952D01*
X143454333Y-95067476D01*
X143406714Y-94972238D01*
X143311476Y-94877000D01*
X143168619Y-94829380D01*
X143073380Y-94829380D01*
X142930523Y-94877000D01*
X142882904Y-94924619D01*
X141882904Y-95734142D02*
X141930523Y-95781761D01*
X142073380Y-95829380D01*
X142168619Y-95829380D01*
X142311476Y-95781761D01*
X142406714Y-95686523D01*
X142454333Y-95591285D01*
X142501952Y-95400809D01*
X142501952Y-95257952D01*
X142454333Y-95067476D01*
X142406714Y-94972238D01*
X142311476Y-94877000D01*
X142168619Y-94829380D01*
X142073380Y-94829380D01*
X141930523Y-94877000D01*
X141882904Y-94924619D01*
X141121000Y-95305571D02*
X140978142Y-95353190D01*
X140930523Y-95400809D01*
X140882904Y-95496047D01*
X140882904Y-95638904D01*
X140930523Y-95734142D01*
X140978142Y-95781761D01*
X141073380Y-95829380D01*
X141454333Y-95829380D01*
X141454333Y-94829380D01*
X141121000Y-94829380D01*
X141025761Y-94877000D01*
X140978142Y-94924619D01*
X140930523Y-95019857D01*
X140930523Y-95115095D01*
X140978142Y-95210333D01*
X141025761Y-95257952D01*
X141121000Y-95305571D01*
X141454333Y-95305571D01*
X136477285Y-103036666D02*
X136001095Y-103036666D01*
X136572523Y-103322380D02*
X136239190Y-102322380D01*
X135905857Y-103322380D01*
X135667761Y-102322380D02*
X135048714Y-102322380D01*
X135382047Y-102703333D01*
X135239190Y-102703333D01*
X135143952Y-102750952D01*
X135096333Y-102798571D01*
X135048714Y-102893809D01*
X135048714Y-103131904D01*
X135096333Y-103227142D01*
X135143952Y-103274761D01*
X135239190Y-103322380D01*
X135524904Y-103322380D01*
X135620142Y-103274761D01*
X135667761Y-103227142D01*
X144041761Y-105338571D02*
X143898904Y-105386190D01*
X143851285Y-105433809D01*
X143803666Y-105529047D01*
X143803666Y-105671904D01*
X143851285Y-105767142D01*
X143898904Y-105814761D01*
X143994142Y-105862380D01*
X144375095Y-105862380D01*
X144375095Y-104862380D01*
X144041761Y-104862380D01*
X143946523Y-104910000D01*
X143898904Y-104957619D01*
X143851285Y-105052857D01*
X143851285Y-105148095D01*
X143898904Y-105243333D01*
X143946523Y-105290952D01*
X144041761Y-105338571D01*
X144375095Y-105338571D01*
X142946523Y-105195714D02*
X142946523Y-105862380D01*
X143184619Y-104814761D02*
X143422714Y-105529047D01*
X142803666Y-105529047D01*
X144454333Y-92289380D02*
X144121000Y-93289380D01*
X143787666Y-92289380D01*
X142882904Y-93194142D02*
X142930523Y-93241761D01*
X143073380Y-93289380D01*
X143168619Y-93289380D01*
X143311476Y-93241761D01*
X143406714Y-93146523D01*
X143454333Y-93051285D01*
X143501952Y-92860809D01*
X143501952Y-92717952D01*
X143454333Y-92527476D01*
X143406714Y-92432238D01*
X143311476Y-92337000D01*
X143168619Y-92289380D01*
X143073380Y-92289380D01*
X142930523Y-92337000D01*
X142882904Y-92384619D01*
X141882904Y-93194142D02*
X141930523Y-93241761D01*
X142073380Y-93289380D01*
X142168619Y-93289380D01*
X142311476Y-93241761D01*
X142406714Y-93146523D01*
X142454333Y-93051285D01*
X142501952Y-92860809D01*
X142501952Y-92717952D01*
X142454333Y-92527476D01*
X142406714Y-92432238D01*
X142311476Y-92337000D01*
X142168619Y-92289380D01*
X142073380Y-92289380D01*
X141930523Y-92337000D01*
X141882904Y-92384619D01*
X141121000Y-92765571D02*
X140978142Y-92813190D01*
X140930523Y-92860809D01*
X140882904Y-92956047D01*
X140882904Y-93098904D01*
X140930523Y-93194142D01*
X140978142Y-93241761D01*
X141073380Y-93289380D01*
X141454333Y-93289380D01*
X141454333Y-92289380D01*
X141121000Y-92289380D01*
X141025761Y-92337000D01*
X140978142Y-92384619D01*
X140930523Y-92479857D01*
X140930523Y-92575095D01*
X140978142Y-92670333D01*
X141025761Y-92717952D01*
X141121000Y-92765571D01*
X141454333Y-92765571D01*
X143890904Y-107450000D02*
X143986142Y-107402380D01*
X144129000Y-107402380D01*
X144271857Y-107450000D01*
X144367095Y-107545238D01*
X144414714Y-107640476D01*
X144462333Y-107830952D01*
X144462333Y-107973809D01*
X144414714Y-108164285D01*
X144367095Y-108259523D01*
X144271857Y-108354761D01*
X144129000Y-108402380D01*
X144033761Y-108402380D01*
X143890904Y-108354761D01*
X143843285Y-108307142D01*
X143843285Y-107973809D01*
X144033761Y-107973809D01*
X143414714Y-108402380D02*
X143414714Y-107402380D01*
X142843285Y-108402380D01*
X142843285Y-107402380D01*
X142367095Y-108402380D02*
X142367095Y-107402380D01*
X142129000Y-107402380D01*
X141986142Y-107450000D01*
X141890904Y-107545238D01*
X141843285Y-107640476D01*
X141795666Y-107830952D01*
X141795666Y-107973809D01*
X141843285Y-108164285D01*
X141890904Y-108259523D01*
X141986142Y-108354761D01*
X142129000Y-108402380D01*
X142367095Y-108402380D01*
X136477285Y-105576666D02*
X136001095Y-105576666D01*
X136572523Y-105862380D02*
X136239190Y-104862380D01*
X135905857Y-105862380D01*
X135143952Y-105195714D02*
X135143952Y-105862380D01*
X135382047Y-104814761D02*
X135620142Y-105529047D01*
X135001095Y-105529047D01*
X138540904Y-92289380D02*
X138207571Y-93289380D01*
X137874238Y-92289380D01*
X136969476Y-93194142D02*
X137017095Y-93241761D01*
X137159952Y-93289380D01*
X137255190Y-93289380D01*
X137398047Y-93241761D01*
X137493285Y-93146523D01*
X137540904Y-93051285D01*
X137588523Y-92860809D01*
X137588523Y-92717952D01*
X137540904Y-92527476D01*
X137493285Y-92432238D01*
X137398047Y-92337000D01*
X137255190Y-92289380D01*
X137159952Y-92289380D01*
X137017095Y-92337000D01*
X136969476Y-92384619D01*
X135969476Y-93194142D02*
X136017095Y-93241761D01*
X136159952Y-93289380D01*
X136255190Y-93289380D01*
X136398047Y-93241761D01*
X136493285Y-93146523D01*
X136540904Y-93051285D01*
X136588523Y-92860809D01*
X136588523Y-92717952D01*
X136540904Y-92527476D01*
X136493285Y-92432238D01*
X136398047Y-92337000D01*
X136255190Y-92289380D01*
X136159952Y-92289380D01*
X136017095Y-92337000D01*
X135969476Y-92384619D01*
X135588523Y-93003666D02*
X135112333Y-93003666D01*
X135683761Y-93289380D02*
X135350428Y-92289380D01*
X135017095Y-93289380D01*
X144041761Y-97718571D02*
X143898904Y-97766190D01*
X143851285Y-97813809D01*
X143803666Y-97909047D01*
X143803666Y-98051904D01*
X143851285Y-98147142D01*
X143898904Y-98194761D01*
X143994142Y-98242380D01*
X144375095Y-98242380D01*
X144375095Y-97242380D01*
X144041761Y-97242380D01*
X143946523Y-97290000D01*
X143898904Y-97337619D01*
X143851285Y-97432857D01*
X143851285Y-97528095D01*
X143898904Y-97623333D01*
X143946523Y-97670952D01*
X144041761Y-97718571D01*
X144375095Y-97718571D01*
X142851285Y-98242380D02*
X143422714Y-98242380D01*
X143137000Y-98242380D02*
X143137000Y-97242380D01*
X143232238Y-97385238D01*
X143327476Y-97480476D01*
X143422714Y-97528095D01*
X136477285Y-97956666D02*
X136001095Y-97956666D01*
X136572523Y-98242380D02*
X136239190Y-97242380D01*
X135905857Y-98242380D01*
X135048714Y-98242380D02*
X135620142Y-98242380D01*
X135334428Y-98242380D02*
X135334428Y-97242380D01*
X135429666Y-97385238D01*
X135524904Y-97480476D01*
X135620142Y-97528095D01*
M02*
